<svg xmlns="http://www.w3.org/2000/svg" width="19.884" height="33.723" viewBox="0 0 19.884 33.723">
  <g id="Icono_telefono" data-name="Icono telefono" transform="translate(-846.669 -689.929)">
    <path id="Trazado_31" data-name="Trazado 31" d="M861.826,723.652H851.4a4.732,4.732,0,0,1-4.727-4.727v-24.27a4.731,4.731,0,0,1,4.727-4.726h10.43a4.731,4.731,0,0,1,4.727,4.726v24.27A4.732,4.732,0,0,1,861.826,723.652ZM851.4,691.929a2.729,2.729,0,0,0-2.727,2.726v24.27a2.73,2.73,0,0,0,2.727,2.727h10.43a2.73,2.73,0,0,0,2.727-2.727v-24.27a2.729,2.729,0,0,0-2.727-2.726Z" fill="#fff"/>
    <path id="Rectángulo_60" data-name="Rectángulo 60" d="M0,0H8.018a0,0,0,0,1,0,0V1.077A1.279,1.279,0,0,1,6.74,2.355H1.279A1.279,1.279,0,0,1,0,1.077V0A0,0,0,0,1,0,0Z" transform="translate(852.602 691.387)" fill="#fff"/>
  </g>
</svg>
