<svg xmlns="http://www.w3.org/2000/svg" width="41.682" height="41.683" viewBox="0 0 41.682 41.683">
  <g id="Grupo_93" data-name="Grupo 93" transform="translate(-76.142 -685.949)">
    <path id="Trazado_29" data-name="Trazado 29" d="M96.983,727.632a20.842,20.842,0,1,1,14.737-6.105,20.7,20.7,0,0,1-14.737,6.105Zm0-39.078a18.236,18.236,0,1,0,18.236,18.236A18.257,18.257,0,0,0,96.983,688.554Z" fill="#fff"/>
    <path id="Trazado_30" data-name="Trazado 30" d="M101.726,706.79a5.2,5.2,0,0,0-1.487-8.736V696.37a1.3,1.3,0,1,0-2.6,0v1.3H95.029v-1.3a1.3,1.3,0,1,0-2.6,0v1.3H89.819a1.3,1.3,0,0,0,0,2.606h1.3V713.3h-1.3a1.3,1.3,0,1,0,0,2.605h2.605v1.3a1.3,1.3,0,1,0,2.6,0v-1.3h2.605v1.3a1.3,1.3,0,1,0,2.6,0v-1.684a5.2,5.2,0,0,0,1.487-8.737Zm-8-6.512h4.559a2.6,2.6,0,1,1,0,5.21H93.726ZM98.285,713.3H93.726v-5.21h4.559a2.6,2.6,0,1,1,0,5.21Z" fill="#fff"/>
  </g>
</svg>
