<svg xmlns="http://www.w3.org/2000/svg" width="40.76" height="34.739" viewBox="0 0 40.76 34.739">
  <g id="Grupo_91" data-name="Grupo 91" transform="translate(-450.862 -689.421)">
    <g id="Grupo_90" data-name="Grupo 90">
      <path id="Trazado_28" data-name="Trazado 28" d="M491.545,714.254a3.58,3.58,0,0,0-2.382-3.369V698.561l2.459-.983-20.407-8.157-20.353,8.157,9.634,3.861v5.668c0,1.747,1.225,3.322,3.449,4.434a18.129,18.129,0,0,0,14.542,0c2.224-1.112,3.449-2.687,3.449-4.434v-5.658l4.844-1.936v11.372a3.573,3.573,0,0,0-.345,6.594l-1.976,5.927,2.26.754,1.252-3.757,1.253,3.757,2.26-.754-1.976-5.927A3.578,3.578,0,0,0,491.545,714.254Zm-11.991-7.147c0,1.687-3.566,3.573-8.338,3.573s-8.338-1.886-8.338-3.573v-4.714l8.338,3.341,8.338-3.333v4.706Zm-8.337-3.939-13.951-5.59,13.951-5.591,13.987,5.591Zm16.754,12.277a1.191,1.191,0,1,1,1.192-1.191A1.193,1.193,0,0,1,487.971,715.445Z" fill="#fff"/>
    </g>
  </g>
</svg>
