<?xml version="1.0" standalone="no"?>
<!DOCTYPE svg PUBLIC "-//W3C//DTD SVG 1.1//EN" "http://www.w3.org/Graphics/SVG/1.1/DTD/svg11.dtd" >
<svg xmlns="http://www.w3.org/2000/svg" xmlns:xlink="http://www.w3.org/1999/xlink" version="1.1">
<metadata>
Created by FontForge 20170731 at Mon May 24 20:36:24 2021
 By Aleksey,,,
Copyright (c) 1985, 1987, 1991, 1993, 1997, 1999, 2002 Adobe Systems Incorporated.  All Rights Reserved. (c) 1981, 1999, 2002 Heidelberger Druckmaschinen AG. All rights reserved.
</metadata>
<defs>
<font id="HelveticaLTStd-BlkCondObl" horiz-adv-x="1024" >
  <font-face 
    font-family="Helvetica LT Std Cond Blk"
    font-weight="900"
    font-style="italic"
    font-stretch="condensed"
    units-per-em="2048"
    panose-1="2 11 8 6 3 5 2 5 2 4"
    ascent="1470"
    descent="-578"
    x-height="1147"
    cap-height="1536"
    bbox="-344 -588 2377 2048"
    underline-thickness="102"
    underline-position="-307"
    slope="-12"
    unicode-range="U+0020-FB02"
  />
<missing-glyph horiz-adv-x="1327" 
d="M303 0v1434h1024v-1434h-1024zM815 809l348 522h-696zM877 717l348 -522v1044zM467 102h696l-348 523zM406 1239v-1044l348 522z" />
    <glyph glyph-name="fi" unicode="fi" horiz-adv-x="1138" 
d="M1030 0h-325l243 1147h326zM1298 1260h-325l57 276h326zM817 1536h144l-50 -236h-69q-70 0 -78 -38l-25 -115h140l-50 -236h-139l-194 -911h-326l195 911h-132l50 236h129l20 98q34 159 127 225t258 66z" />
    <glyph glyph-name="fl" unicode="fl" horiz-adv-x="1138" 
d="M1030 0h-325l325 1536h326zM817 1536h144l-50 -236h-69q-70 0 -78 -38l-25 -115h140l-50 -236h-139l-194 -911h-326l195 911h-132l50 236h129l20 98q34 159 127 225t258 66z" />
    <glyph glyph-name=".notdef" horiz-adv-x="1327" 
d="M303 0v1434h1024v-1434h-1024zM815 809l348 522h-696zM877 717l348 -522v1044zM467 102h696l-348 523zM406 1239v-1044l348 522z" />
    <glyph glyph-name=".null" horiz-adv-x="0" 
 />
    <glyph glyph-name="nonmarkingreturn" horiz-adv-x="682" 
 />
    <glyph glyph-name="space" unicode=" " horiz-adv-x="512" 
 />
    <glyph glyph-name="exclam" unicode="!" horiz-adv-x="681" 
d="M354 494l52 655l81 387h361l-82 -387l-227 -655h-185zM516 0h-346l74 350h346z" />
    <glyph glyph-name="quotedbl" unicode="&#x22;" horiz-adv-x="681" 
d="M854 958h-244l119 555h244zM479 958h-243l118 555h244z" />
    <glyph glyph-name="numbersign" unicode="#" 
d="M1098 688l-49 -233h-207l-158 -455h-178l156 455h-175l-157 -455h-185l158 455h-188l49 233h221l70 193h-193l51 235h222l145 420h178l-143 -420h176l143 420h185l-146 -420h170l-51 -235h-203l-65 -193h174zM809 881h-176l-66 -193h176z" />
    <glyph glyph-name="dollar" unicode="$" 
d="M672 547l-74 -342q73 13 127.5 61.5t58.5 118.5q-2 17 -2.5 34.5t-2 33t-27.5 40t-80 54.5zM123 440h285q2 -10 -5.5 -47.5t-10.5 -70t21 -68t81 -53.5l81 383q-52 28 -88 48.5t-76 49.5t-64.5 56.5t-47 64.5t-31 77.5t-8 92.5t13.5 112q33 161 169 271t298 119l29 135
h180l-28 -135q174 -17 250.5 -134.5t33.5 -298.5h-286q7 46 7 88t-24 73.5t-69 37.5l-76 -358q54 -25 90.5 -44t78.5 -46t67.5 -53t49.5 -62.5t33.5 -76.5t10 -92.5t-12.5 -113.5q-40 -191 -167 -303t-322 -125l-49 -225h-181l50 227q-202 35 -265.5 144t-17.5 327zM664 934
l65 311q-72 -21 -111 -50t-53 -93q-12 -61 15.5 -105.5t83.5 -62.5z" />
    <glyph glyph-name="percent" unicode="%" horiz-adv-x="1705" 
d="M535 743q-96 0 -155.5 26.5t-84 76t-26 120.5t19.5 160q80 381 407 381q179 0 234.5 -91.5t13.5 -289.5q-15 -71 -32.5 -123t-49 -104t-73.5 -84t-106.5 -52t-147.5 -20zM573 930q30 0 53 18.5t36 51t19.5 58t12.5 58.5q1 4 1.5 6.5t0.5 5.5q2 7 7.5 30t8.5 36.5t6 35.5
t0.5 35.5t-8 27.5t-19 21t-34.5 7q-22 2 -40.5 -8t-29 -23.5t-20.5 -39.5t-13.5 -41.5t-9.5 -45t-7 -35.5q-3 -15 -9 -39.5t-9 -40t-6 -36.5t-1 -33.5t8 -25t19.5 -18t33.5 -5.5zM1491 756q125 0 189.5 -45.5t73.5 -130t-15 -205.5q-15 -71 -32.5 -123t-49 -103.5t-74 -84
t-107 -52.5t-147.5 -20q-96 0 -155.5 26.5t-84 76t-26 120.5t19.5 160q80 381 408 381zM1452 569q-22 2 -40.5 -8t-29.5 -22.5t-21 -39t-13.5 -40.5t-9.5 -45t-7 -35q-3 -14 -9 -39.5t-9 -41t-6 -37t-0.5 -34t8.5 -25t19.5 -18.5t33.5 -6q30 0 53 19t35.5 50.5t19.5 59.5
t13 59q0 3 0.5 4.5t1 4t0.5 4.5l7.5 30t8.5 35.5t6 35t0.5 35t-8 27.5t-19 20.5t-34.5 6.5zM1612 1536l-1022 -1573h-172l1026 1573h168z" />
    <glyph glyph-name="ampersand" unicode="&#x26;" horiz-adv-x="1366" 
d="M825 307l-161 371q-70 -62 -104 -112t-52 -128q-17 -82 25.5 -140t123.5 -58q64 2 168 67zM918 1348q-39 0 -71 -28t-40 -67q-10 -48 3.5 -99.5t43.5 -84.5q45 20 90.5 74t54.5 98q11 55 -8 81t-73 26zM954 0l-36 88q-174 -125 -369 -125q-207 0 -307.5 124t-55.5 333
q33 157 132.5 280.5t254.5 208.5q-91 153 -51 342q21 102 99.5 177.5t174 110t193.5 34.5q104 0 180.5 -36.5t113 -113.5t13.5 -184q-26 -124 -117.5 -220.5t-224.5 -158.5q11 -26 35.5 -80.5t42.5 -97.5t33 -82h4q39 89 88 217h264q-55 -230 -241 -485l141 -332h-367z" />
    <glyph glyph-name="quotesingle" unicode="'" horiz-adv-x="512" 
d="M582 958h-244l119 555h243z" />
    <glyph glyph-name="parenleft" unicode="(" horiz-adv-x="569" 
d="M606 1536h248q-257 -425 -375 -973q-109 -517 -24 -946h-256q-28 135 -41.5 210t-25 176.5t-9 183.5t15 189t39.5 234q51 242 156 462t272 464z" />
    <glyph glyph-name="parenright" unicode=")" horiz-adv-x="569" 
d="M207 -383h-248q260 426 375 973q112 516 24 946h256q28 -137 41.5 -210t25.5 -176t9.5 -184t-15.5 -188.5t-40 -234.5q-52 -243 -156.5 -464t-271.5 -462z" />
    <glyph glyph-name="asterisk" unicode="*" 
d="M696 1298l49 238h191l-49 -231l241 86l23 -189l-250 -72l117 -206l-176 -119l-115 211l-188 -205l-136 111l201 202l-219 68l100 184z" />
    <glyph glyph-name="plus" unicode="+" 
d="M528 629l82 379h236l-82 -379h342l-49 -236h-342l-84 -393h-236l84 393h-342l49 236h342z" />
    <glyph glyph-name="comma" unicode="," horiz-adv-x="681" 
d="M100 -319l25 116q84 3 145 58q58 50 84 145h-186l74 350h346l-74 -352q-32 -152 -141.5 -229t-272.5 -88z" />
    <glyph glyph-name="hyphen" unicode="-" horiz-adv-x="681" 
d="M698 485h-508l66 308h508z" />
    <glyph glyph-name="period" unicode="." horiz-adv-x="681" 
d="M514 0h-346l74 350h346z" />
    <glyph glyph-name="slash" unicode="/" horiz-adv-x="569" 
d="M121 -193h-219l827 1729h225z" />
    <glyph glyph-name="zero" unicode="0" 
d="M713 412l145 690q46 178 -72 178q-40 0 -68 -14.5t-44 -44t-24.5 -54t-16.5 -65.5l-146 -690q-5 -25 -8 -39.5t-6 -37.5t-1.5 -37t6 -31t15 -26t27.5 -15.5t41 -6.5q31 1 56.5 16t40 32.5t27 47t16.5 46t10 42.5q1 6 2 9zM139 387l152 715q48 225 186 329.5t363 104.5
q181 0 270.5 -59t100.5 -175t-29 -288l-117 -553q-28 -130 -69.5 -220t-107.5 -154t-161 -94t-225 -30q-453 0 -363 424z" />
    <glyph glyph-name="one" unicode="1" 
d="M389 0l221 1036h-313l49 236q67 -1 131.5 10t129.5 36t117 72.5t79 112.5h231l-319 -1503h-326z" />
    <glyph glyph-name="two" unicode="2" 
d="M584 981h-326l16 80q50 229 196 352t376 123q211 0 305 -106t51 -316q-29 -139 -94.5 -235t-192.5 -205l-159 -129q-77 -60 -156.5 -136.5t-103.5 -132.5h530l-59 -276h-920l10 51q20 91 65.5 182t111 174.5t133 153t151.5 144.5l191 163q68 61 101 117.5t52 142.5
q14 67 -8 112.5t-88 39.5q-118 -6 -168 -225z" />
    <glyph glyph-name="three" unicode="3" 
d="M461 659l53 246q11 1 41.5 1.5t47.5 2t42.5 5.5t47 12t40.5 20q38 23 66 74.5t37 97.5q15 74 -3 116t-85 42q-29 0 -52 -12t-36.5 -26.5t-26.5 -43.5t-18 -46t-13.5 -51t-11.5 -44h-328l27 112q27 110 112.5 196.5t193.5 130.5t216 44q206 0 302 -96t52 -299
q-25 -124 -91.5 -207t-186.5 -135l-2 -4q65 -17 106 -55t56.5 -91t15.5 -110t-14 -123q-49 -227 -196 -340t-376 -113q-208 0 -296.5 109.5t-57.5 316.5l20 105h324q-2 -15 -8 -46.5t-9 -53t-5.5 -51t2 -49t14 -38t30 -28t50.5 -9.5q126 0 166 197q33 167 -33 215
q-25 17 -59.5 22t-84.5 4.5t-69 1.5z" />
    <glyph glyph-name="four" unicode="4" 
d="M393 549h254l107 498h-4zM80 293l61 287l676 923h359l-203 -954h135l-55 -256h-135l-62 -293h-326l62 293h-512z" />
    <glyph glyph-name="five" unicode="5" 
d="M514 666h-301l217 837h795l-60 -276h-534l-74 -287q125 94 258 94q77 0 133.5 -20.5t88 -59.5t48.5 -87t18 -111t-6 -122t-22 -130q-27 -130 -71 -225.5t-112.5 -168.5t-169.5 -110t-233 -37q-194 0 -277.5 91t-78.5 282l25 117h323q-1 -12 -6 -41.5t-8 -50t-2.5 -48
t7 -45.5t23.5 -32t44 -17q31 -3 58 8t46 34.5t33 48.5t24.5 59.5t16 55.5t10.5 48q25 118 27 153q13 152 -95 152q-109 0 -145 -112z" />
    <glyph glyph-name="six" unicode="6" 
d="M559 219q115 0 160 201l33 153q32 160 -88 160q-108 0 -144 -155l-47 -226q-13 -58 8 -95.5t78 -37.5zM1190 1139h-326q13 67 0 100q-18 41 -82 41q-27 0 -49.5 -9t-38.5 -29t-27.5 -37.5t-21 -48.5t-14 -48t-11 -50.5t-8.5 -41.5l-20 -103q70 45 121.5 60.5t128.5 15.5
q339 0 241 -461q-23 -109 -53.5 -192t-77.5 -155.5t-109.5 -119t-150.5 -72.5t-200 -26q-101 0 -172.5 27t-111.5 74.5t-57 117t-13.5 148t24.5 174.5l86 405q17 77 33 136t41 127.5t54 118t71.5 98.5t92.5 79.5t118 49t149 18.5q75 0 133 -8t107.5 -26.5t80.5 -48.5t52 -74
t21 -103.5t-11 -136.5z" />
    <glyph glyph-name="seven" unicode="7" 
d="M309 1227l60 276h884l-55 -256q-219 -283 -430 -729q-104 -215 -201 -518h-354q31 145 170.5 423t251.5 447l235 357h-561z" />
    <glyph glyph-name="eight" unicode="8" 
d="M555 213q32 0 57.5 10t43.5 31.5t30.5 40.5t22.5 52.5t14.5 51.5t11.5 52q6 30 9.5 50.5t6 50.5t-2.5 49.5t-15 38.5t-31.5 28.5t-52.5 9.5q-20 0 -37 -4.5t-30 -10t-25 -18.5t-19.5 -21t-16 -27.5t-12.5 -28.5t-10 -32t-7.5 -30.5l-6.5 -32.5t-6 -29q-7 -34 -11 -58
t-4.5 -59.5t7 -58t28.5 -39t56 -16.5zM627 1100q-36 -176 78 -176q126 0 165 184q6 40 8 80t-20 70t-67 30q-40 0 -69.5 -16t-48 -45t-28.5 -58.5t-18 -68.5zM420 807v4q-86 53 -112 133t1 189q42 198 182 300.5t345 102.5q209 0 306.5 -101.5t55.5 -301.5
q-50 -227 -256 -322v-4q100 -67 123.5 -152t-8.5 -219q-53 -248 -195.5 -360.5t-388.5 -112.5q-198 0 -283 125t-38 348q12 55 23 92t30.5 77t47 71t69 64t98.5 67z" />
    <glyph glyph-name="nine" unicode="9" 
d="M786 1280q-29 0 -53.5 -13t-41.5 -36.5t-30 -48.5t-22 -58t-14.5 -55.5t-10.5 -49.5q0 -3 -0.5 -4t-1 -3t-0.5 -4q-23 -106 -23 -140q1 -101 91 -102q34 0 60 14t42 36.5t27.5 50.5t19 57.5t12.5 55.5q2 12 3 17q2 10 10.5 45t11.5 54t7.5 51.5t1 52t-12 40t-28 30.5
t-48.5 10zM154 360h325q-11 -69 2 -100q16 -41 82 -41q24 0 44.5 8.5t34.5 19.5t27 33t20.5 37.5t15 44t10.5 42.5t9 43t7 36l23 103q-71 -45 -122 -60.5t-128 -15.5q-340 0 -242 461q30 138 71 235.5t108.5 175t169.5 116t241 38.5q101 0 172.5 -27t111.5 -74.5t57 -117
t13.5 -148t-24.5 -174.5l-86 -405q-16 -77 -32 -136t-41 -127t-54 -118t-71.5 -99t-93 -79.5t-118.5 -49t-149 -18.5q-75 0 -133 8t-107.5 26.5t-80.5 48.5t-52 74t-21 103.5t11 136.5z" />
    <glyph glyph-name="colon" unicode=":" horiz-adv-x="569" 
d="M627 786h-346l73 351h346zM459 0h-346l73 350h346z" />
    <glyph glyph-name="semicolon" unicode=";" horiz-adv-x="569" 
d="M45 -319l25 116q84 3 145 58q58 50 84 145h-186l73 350h346l-73 -352q-32 -152 -141.5 -229t-272.5 -88zM627 786h-346l73 351h346z" />
    <glyph glyph-name="less" unicode="&#x3c;" 
d="M440 512l539 -332l-49 -227l-756 461l43 202l952 465l-47 -227z" />
    <glyph glyph-name="equal" unicode="=" 
d="M1149 829l-49 -235h-920l49 235h920zM1065 430l-51 -235h-920l51 235h920z" />
    <glyph glyph-name="greater" unicode="&#x3e;" 
d="M125 180l678 332l-535 342l47 227l756 -465l-43 -202l-952 -461z" />
    <glyph glyph-name="question" unicode="?" 
d="M600 1087h-326q35 216 189.5 351t367.5 135q78 0 143 -13.5t119.5 -43t87 -75t45 -110t-6.5 -147.5q-20 -90 -70 -164t-133 -156q-15 -15 -53.5 -51t-65.5 -62.5t-51 -52.5q-33 -37 -52.5 -70.5t-27.5 -55.5t-25 -80h-309q17 94 41 162t72 126q3 3 59.5 56.5t81.5 80
t68.5 76t67.5 90.5t32 78q11 60 -8.5 97.5t-77.5 37.5q-35 0 -62 -13.5t-43.5 -31.5t-29.5 -50t-19 -54.5t-14 -59.5zM653 0h-348l74 350h346z" />
    <glyph glyph-name="at" unicode="@" horiz-adv-x="1699" 
d="M1192 758q14 48 14.5 90t-11.5 76t-43.5 52.5t-78.5 14.5q-95 -7 -177.5 -83.5t-109.5 -176.5q-27 -97 2.5 -155t96.5 -68q52 -8 104.5 13t91.5 60.5t68 85.5t43 91zM1325 1057l45 108h201l-244 -630q-11 -27 0 -38.5t33 -4.5q27 7 75.5 45.5t92.5 85.5q32 35 69.5 106
t53.5 137q41 169 -6 296.5t-166.5 194t-292.5 66.5q-187 0 -353.5 -83.5t-281 -232t-154.5 -333.5q-32 -149 -4 -270t101.5 -207t189 -133t258.5 -47q215 0 459 186h196q-150 -161 -331 -250.5t-373 -89.5q-226 0 -392.5 105t-237.5 291.5t-23 414.5q48 224 195.5 408
t355.5 287.5t432 103.5q300 0 463 -172q195 -198 137 -475q-55 -265 -256 -437q-81 -68 -201.5 -124t-206.5 -56q-42 0 -61 34.5t2 94.5l-2 4q-158 -125 -279 -125q-106 0 -175 51t-91.5 136t0.5 190q20 94 70 182t120 156t161.5 109t187.5 41q172 0 233 -125z" />
    <glyph glyph-name="A" unicode="A" horiz-adv-x="1138" 
d="M381 0h-363l662 1536h434l8 -1536h-364l12 299h-283zM793 569l47 688h-4l-252 -688h209z" />
    <glyph glyph-name="B" unicode="B" horiz-adv-x="1138" 
d="M590 655l-80 -379q126 3 157 9q70 14 103 76q22 41 37 114q8 36 6.5 63.5t-3.5 45.5t-22.5 31.5t-28 20t-44.5 11t-47 5t-59 2.5q-4 0 -6.5 0.5t-6 0.5h-6.5zM719 1260l-70 -328q12 1 33 2q33 2 48.5 3t41 4.5t37.5 8.5t29.5 13.5t27 21.5t21 31t19 42t14.5 56
q5 24 5 43.5t-2 34t-11.5 25.5t-17 18t-24.5 12t-27.5 7.5t-34 4t-36 1.5h-39.5h-14zM598 0h-508l326 1536h467q60 0 111 -6t99 -19t83 -34t63.5 -52t41.5 -72t16 -94.5t-13 -119.5q-49 -230 -242 -324l-2 -4q105 -69 129.5 -147.5t-8.5 -219.5q-94 -444 -563 -444z" />
    <glyph glyph-name="C" unicode="C" horiz-adv-x="1138" 
d="M1268 999h-361l21 99q20 98 0.5 148t-72.5 50q-80 1 -119 -38.5t-55 -120.5l-164 -760q-29 -137 100 -137q35 0 64 14.5t47 35.5t33 53t22.5 58t14.5 60l28 139h361l-39 -188q-45 -209 -198 -329t-419 -120q-242 0 -325.5 124t-30.5 366l133 630q54 251 197.5 370.5
t390.5 119.5q238 0 342.5 -108.5t54.5 -336.5z" />
    <glyph glyph-name="D" unicode="D" horiz-adv-x="1138" 
d="M580 0h-486l326 1536h391q84 0 140.5 -3t130 -20t120.5 -49q44 -29 68.5 -71.5t29.5 -95t1 -101.5t-17 -111l-145 -682q-53 -235 -226 -331q-125 -72 -333 -72zM723 1260l-209 -984q59 -4 102 0.5t73 22.5t48.5 36.5t33 59.5t22 73t18.5 95l109 502q9 45 10.5 76.5t-8 53
t-22 34t-42 19.5t-57.5 9t-78 3z" />
    <glyph glyph-name="E" unicode="E" 
d="M944 0h-850l326 1536h825l-63 -307h-465l-62 -283h451l-66 -307h-450l-70 -332h490z" />
    <glyph glyph-name="F" unicode="F" 
d="M461 0h-361l326 1536h848l-64 -307h-487l-59 -273h448l-65 -307h-449z" />
    <glyph glyph-name="G" unicode="G" horiz-adv-x="1138" 
d="M1049 -2h-246l12 137h-4q-76 -97 -153 -134.5t-195 -37.5q-403 0 -299 490l133 630q54 251 197.5 370.5t390.5 119.5q492 0 395 -445l-25 -114h-360l18 84q25 98 11.5 147.5t-80.5 50.5q-80 1 -119 -38.5t-55 -120.5l-162 -760q-29 -137 104 -137q44 0 74.5 15.5
t48.5 47.5t27 59.5t18 73.5l27 121h-129l59 277h490z" />
    <glyph glyph-name="H" unicode="H" horiz-adv-x="1138" 
d="M444 0h-360l326 1536h360l-125 -590h250l125 590h360l-325 -1536h-361l135 639h-249z" />
    <glyph glyph-name="I" unicode="I" horiz-adv-x="569" 
d="M465 0h-361l326 1536h361z" />
    <glyph glyph-name="J" unicode="J" horiz-adv-x="909" 
d="M123 512h289l-41 -195q-9 -42 5.5 -60.5t51.5 -16.5q41 2 58.5 13t23.5 42l264 1241h361l-228 -1069q-2 -10 -9.5 -46t-10.5 -50.5t-11 -46t-15 -50.5t-17.5 -45t-23.5 -48.5t-29 -43.5q-73 -98 -173 -136t-231 -38q-135 0 -220 65t-89 189q-4 63 26 207z" />
    <glyph glyph-name="K" unicode="K" horiz-adv-x="1138" 
d="M451 0h-361l326 1536h360l-129 -614h4l396 614h368l-471 -678l166 -858h-381l-86 535l-113 -156z" />
    <glyph glyph-name="L" unicode="L" horiz-adv-x="909" 
d="M877 0h-801l325 1536h361l-260 -1229h440z" />
    <glyph glyph-name="M" unicode="M" horiz-adv-x="1593" 
d="M442 0h-342l326 1536h508l-6 -907h4l385 907h504l-326 -1536h-344l293 1204h-4l-510 -1204h-268l8 1204h-4z" />
    <glyph glyph-name="N" unicode="N" horiz-adv-x="1138" 
d="M682 0l-98 860l-4 -4l-150 -856h-342l326 1536h370l97 -858h6l147 858h342l-325 -1536h-369z" />
    <glyph glyph-name="O" unicode="O" horiz-adv-x="1138" 
d="M797 459l133 631q6 28 9 48t5 46.5t-3 44t-14.5 34.5t-29.5 25t-49 8q-33 0 -60 -13t-45 -32t-32 -48t-22 -55t-15 -58l-133 -631q-50 -219 84 -219q34 0 61 15t44 36t31.5 54t21 56.5t14.5 57.5zM1296 1114l-133 -625q-29 -134 -74 -229t-115.5 -163t-171.5 -101
t-237 -33q-180 0 -277 59.5t-118 176.5t16 290l133 625q46 221 198.5 340t389.5 119q236 0 335.5 -118.5t53.5 -340.5z" />
    <glyph glyph-name="P" unicode="P" horiz-adv-x="1138" 
d="M737 1260l-82 -386q9 0 40 0.5t45.5 1.5t40 4.5t46 11.5t39.5 21q54 49 78 156q30 146 -31 178q-34 13 -137 13h-39zM469 0h-360l325 1536h428q330 0 414 -127q78 -116 31 -334q-75 -335 -295 -428q-48 -21 -106.5 -32.5t-99 -13t-109.5 -2t-101 -1.5z" />
    <glyph glyph-name="Q" unicode="Q" horiz-adv-x="1138" 
d="M1296 1114l-133 -625q-55 -259 -182 -380l131 -181l-250 -180l-155 227q-20 -4 -66 -8q-50 -4 -76 -4q-180 0 -277 59.5t-118 176.5t16 290l133 625q46 221 198.5 340t389.5 119q236 0 335.5 -118.5t53.5 -340.5zM674 1090l-133 -631q-50 -219 84 -219q34 0 61 15t44 36
t31.5 54t21 56.5t14.5 57.5l133 631q6 28 9 48t5 46.5t-3 44t-14.5 34.5t-29.5 25t-49 8q-33 0 -60 -13t-45 -32t-32 -48t-22 -55t-15 -58z" />
    <glyph glyph-name="R" unicode="R" horiz-adv-x="1138" 
d="M715 1260l-80 -377h123q72 0 112 54t56 136q10 45 10.5 77t-8.5 53t-27 33t-44.5 17.5t-62 6.5t-79.5 0zM575 606l-129 -606h-360l326 1536h526q226 0 313.5 -100t38.5 -324q-28 -132 -87 -216t-177 -134v-4q73 -18 110 -70t25 -129q-6 -43 -24 -151.5t-31.5 -199.5
t-13.5 -134q7 -37 22 -54l-4 -20h-393q-7 50 -2 88q9 53 35 178.5t32 177.5q8 76 -11 117t-77 45h-119z" />
    <glyph glyph-name="S" unicode="S" 
d="M141 514h334l-22 -108q-34 -166 108 -166q59 0 100 44.5t54 108.5q4 21 5 40t-4 35.5t-9.5 30t-17 27.5t-20 23t-25 22.5t-26 19.5t-28.5 19.5t-27 18.5q-85 56 -139.5 101.5t-89.5 98.5q-78 125 -39 308q45 213 188.5 324.5t356.5 111.5q229 0 320.5 -137.5t31.5 -360.5
h-332l4.5 27t4.5 30t3.5 28.5t2 29t-1.5 26t-5 25.5t-10.5 20.5t-16 17.5t-23 11t-30.5 6q-109 9 -147 -102q-9 -37 -11 -61.5t10.5 -48.5t27.5 -41t41 -37q39 -28 106.5 -73t110.5 -77.5t73 -67.5q54 -62 68 -142.5t-12 -223.5q-47 -222 -192 -340.5t-369 -118.5
q-96 0 -171 21t-120.5 57t-73.5 85t-31 105.5t8 118.5z" />
    <glyph glyph-name="T" unicode="T" 
d="M307 1229l64 307h934l-64 -307h-291l-262 -1229h-360l262 1229h-283z" />
    <glyph glyph-name="U" unicode="U" horiz-adv-x="1138" 
d="M176 424l236 1112h360l-246 -1159q-30 -137 97 -137q64 0 102 44t51 103l244 1149h360l-235 -1112q-98 -461 -584 -461q-234 0 -334.5 114.5t-50.5 346.5z" />
    <glyph glyph-name="V" unicode="V" horiz-adv-x="1138" 
d="M780 0h-424l-8 1536h361l-43 -1077h4l411 1077h361z" />
    <glyph glyph-name="W" unicode="W" horiz-adv-x="1593" 
d="M1300 1536l-88 -1077h5l339 1077h342l-581 -1536h-406l119 1081h-4l-348 -1081h-399l67 1536h348l-121 -1079l7 4l372 1075h348z" />
    <glyph glyph-name="X" unicode="X" horiz-adv-x="1138" 
d="M729 1536l70 -467h4l262 467h360l-483 -770l172 -766h-360l-76 459h-4l-303 -459h-344l503 766l-159 770h358z" />
    <glyph glyph-name="Y" unicode="Y" horiz-adv-x="1138" 
d="M713 1536l73 -502h5l290 502h361l-559 -891l-138 -645h-360l137 645l-174 891h365z" />
    <glyph glyph-name="Z" unicode="Z" horiz-adv-x="909" 
d="M315 1229l64 307h815l-59 -287l-648 -942h467l-65 -307h-869l58 274l659 955h-422z" />
    <glyph glyph-name="bracketleft" unicode="[" horiz-adv-x="569" 
d="M4 -383l408 1919h450l-41 -195h-166l-325 -1529h166l-41 -195h-451z" />
    <glyph glyph-name="backslash" unicode="\" horiz-adv-x="512" 
d="M559 -193h-219l-100 1729h225z" />
    <glyph glyph-name="bracketright" unicode="]" horiz-adv-x="569" 
d="M809 1536l-408 -1919h-450l41 195h166l325 1529h-166l41 195h451z" />
    <glyph glyph-name="asciicircum" unicode="^" 
d="M381 668l-188 96l524 772h241l197 -772l-229 -96l-152 571z" />
    <glyph glyph-name="underscore" unicode="_" 
d="M969 -256h-1024l22 102h1024z" />
    <glyph glyph-name="grave" unicode="`" horiz-adv-x="681" 
d="M262 1602h426l141 -304h-280z" />
    <glyph glyph-name="a" unicode="a" 
d="M696 377l39 180q-20 -9 -87.5 -37.5t-94.5 -46.5q-88 -54 -107 -147q-12 -55 13 -89t82 -34q113 0 155 174zM651 0v102q-83 -73 -151.5 -106t-159.5 -33q-137 0 -200 84.5t-34 222.5q20 93 58 162.5t91 113t103 68.5t115 45q27 8 74 21t72.5 20.5t61 22t55.5 29.5
t37 38.5t24 53.5q10 50 -10.5 84.5t-67.5 34.5q-41 0 -69 -12.5t-45 -38.5t-26.5 -51t-20.5 -65q-1 -4 -1.5 -6.5t-1.5 -5.5h-326q36 208 183 306q134 90 342 90q240 0 322 -80.5t42 -270.5l-149 -702q-10 -56 0 -127h-318z" />
    <glyph glyph-name="b" unicode="b" 
d="M715 428l63 297q4 22 5.5 28.5t5.5 28.5t3.5 32t-0.5 29t-5 28t-12 20t-20 15.5t-30 4.5q-61 0 -96 -53t-54 -147l-57 -271q-13 -54 -14.5 -99.5t15 -79t54.5 -32.5q30 0 53.5 14.5t37 33t25 50.5t16 51t10.5 50zM750 1536l-103 -483h4q93 127 271 127q77 0 126 -35.5
t67 -95t18 -125t-15 -138.5l-86 -397q-88 -416 -375 -426q-79 3 -139.5 47t-83.5 121h-4l-29 -131h-303l326 1536h326z" />
    <glyph glyph-name="c" unicode="c" 
d="M1087 721h-307l2 20q1 21 8.5 65.5t8.5 65.5q-5 37 -21.5 54.5t-52.5 17.5q-58 0 -86.5 -37.5t-40.5 -101.5l-102 -473q-12 -62 3.5 -97.5t73.5 -35.5q25 0 45.5 9.5t35.5 29t25.5 38t19 49.5t12.5 49t10 50t8 41h315q-13 -62 -37.5 -146.5t-45.5 -125.5
q-53 -102 -146.5 -157.5t-208.5 -66.5q-93 -6 -110 -6q-187 0 -277 84.5t-51 271.5l100 467q44 212 165.5 303t320.5 91q241 -3 319.5 -112.5t13.5 -346.5z" />
    <glyph glyph-name="d" unicode="d" 
d="M561 711l-63 -297q-4 -19 -5.5 -28t-5 -29t-3 -31.5t1 -29t5.5 -27.5t12 -20.5t20 -15t30 -4.5q60 0 90.5 50.5t50.5 148.5l58 270q10 41 13.5 76t1.5 68.5t-17.5 52.5t-44.5 18q-30 0 -54 -15t-38 -34t-25.5 -51t-16 -52t-10.5 -50zM930 0h-303l28 133h-4
q-62 -81 -139.5 -125.5t-151.5 -44.5q-282 10 -194 426l86 397q15 73 42.5 138.5t70 125t106.5 95t141 35.5q147 0 209 -138h4l105 494h325z" />
    <glyph glyph-name="e" unicode="e" 
d="M559 735h225l25 113q5 24 1 49t-26 46.5t-61 21.5q-117 0 -148 -154zM1065 520h-551l-43 -201q-10 -51 7.5 -84t68.5 -36q25 -1 44.5 3.5t34 17t24 24t18 34t12.5 36.5t11.5 42.5t10.5 40.5h324q-33 -217 -166 -324t-352 -110q-91 -1 -163.5 18.5t-125.5 60t-73.5 111.5
t-0.5 166l101 467q81 391 520 394q71 1 131.5 -10t112.5 -35t83.5 -62.5t45 -94.5t-3.5 -130z" />
    <glyph glyph-name="f" unicode="f" horiz-adv-x="681" 
d="M170 0l192 909h-131l52 236h129l22 100q37 160 128 225.5t255 65.5h144l-50 -236h-69q-70 0 -78 -38l-25 -117h140l-52 -236h-139l-192 -909h-326z" />
    <glyph glyph-name="g" unicode="g" 
d="M565 743l-69 -325q-23 -123 71 -123q59 0 87.5 41.5t41.5 107.5l68 318q7 40 7.5 73.5t-19.5 55.5t-62 22q-30 0 -53.5 -17.5t-37.5 -46t-21.5 -54t-12.5 -52.5zM59 -63h326q-13 -65 2 -89t82 -20q56 5 81 23t38 71l49 232h-4q-135 -125 -258 -125q-74 0 -124.5 31.5
t-71.5 82.5t-26.5 115.5t11.5 130.5l86 397q15 73 43 138.5t70.5 125t107 95t141.5 35.5q176 -6 224 -172h4l28 139h303l-247 -1170q-21 -98 -69.5 -169.5t-118 -113.5t-150.5 -61.5t-176 -19.5q-55 0 -99.5 4t-86 14t-70.5 26.5t-54 41t-35 58.5t-14 79t8 101z" />
    <glyph glyph-name="h" unicode="h" 
d="M745 1536l-100 -479h4q68 68 133.5 95.5t139.5 27.5q117 0 173 -74t31 -186l-194 -920h-326l174 815q10 53 -3.5 75.5t-67.5 22.5q-50 0 -80.5 -35.5t-40.5 -84.5l-168 -793h-326l326 1536h325z" />
    <glyph glyph-name="i" unicode="i" horiz-adv-x="569" 
d="M449 0h-326l244 1147h325zM717 1260h-326l58 276h325z" />
    <glyph glyph-name="j" unicode="j" horiz-adv-x="569" 
d="M-53 -387l49 235h41q62 4 84 105l254 1194h325l-249 -1176q-18 -85 -42 -144t-63 -109t-99.5 -76t-144.5 -29h-155zM725 1260h-326l58 276h325z" />
    <glyph glyph-name="k" unicode="k" 
d="M408 0h-326l326 1536h325l-164 -772h4l306 383h356l-422 -461l182 -686h-342l-96 442l-72 -73z" />
    <glyph glyph-name="l" unicode="l" horiz-adv-x="569" 
d="M449 0h-326l326 1536h325z" />
    <glyph glyph-name="m" unicode="m" horiz-adv-x="1478" 
d="M322 1147h303l-29 -133h4q54 74 131.5 117.5t147.5 48.5q80 5 139.5 -37.5t71.5 -114.5h4q119 152 268 152q122 0 194 -64t48 -176l-201 -940h-326l174 819q7 44 -7.5 70.5t-57.5 23.5q-43 -2 -71.5 -26t-37.5 -68l-174 -819h-325l174 819q0 30 -2.5 47t-16 32t-39.5 15
q-91 0 -116 -94l-175 -819h-325z" />
    <glyph glyph-name="n" unicode="n" 
d="M344 1147h303l-31 -143h5q39 70 115 123t149 53q122 0 193.5 -64t47.5 -176l-200 -940h-326l174 819q7 44 -7.5 70.5t-57.5 23.5q-43 -2 -71.5 -26t-37.5 -68l-174 -819h-326z" />
    <glyph glyph-name="o" unicode="o" 
d="M154 319l100 467q81 394 508 394q425 0 344 -394l-100 -467q-52 -188 -179.5 -272t-322.5 -84q-72 0 -131 12t-108.5 38t-78 67.5t-39.5 101t7 137.5zM584 811l-109 -512q-6 -51 12 -75.5t68 -24.5q49 0 77 24.5t44 75.5l108 512q29 133 -71 133t-129 -133z" />
    <glyph glyph-name="p" unicode="p" 
d="M702 428l64 297q4 21 5.5 28.5t5 29t3.5 32.5v29t-5 28t-12 21t-20 15.5t-30 4.5q-61 0 -95.5 -54t-54.5 -148l-57 -271q-13 -54 -14.5 -99.5t15 -79t54.5 -32.5q25 0 45.5 9t34.5 27t24 35t17.5 44.5t11 42t8.5 41.5zM330 1147h303l-29 -139h4q124 166 301 172
q62 0 106 -24t67 -62.5t32.5 -91.5t6.5 -106t-15 -110l-86 -397q-88 -416 -375 -426q-52 -2 -111.5 33.5t-95.5 112.5h-4l-104 -496h-326z" />
    <glyph glyph-name="q" unicode="q" 
d="M688 428l57 270q9 40 12.5 76t0 68.5t-20 52t-45.5 18.5q-30 0 -53.5 -15t-37.5 -34t-25.5 -51t-16 -51.5t-10.5 -50.5l-64 -297q-6 -29 -9 -46.5t-4 -47t4.5 -47t21.5 -31t43 -13.5q61 0 94 52t53 147zM1167 1147l-325 -1532h-326l105 494h-5q-67 -77 -141.5 -112.5
t-126.5 -33.5q-282 10 -194 426l86 397q15 73 42.5 138.5t70 125t106.5 95t141 35.5q172 -6 231 -172h5l28 139h303z" />
    <glyph glyph-name="r" unicode="r" horiz-adv-x="681" 
d="M330 1147h303l-37 -174h4q106 207 295 207l-78 -369q-41 8 -96 8q-72 0 -106.5 -22t-53.5 -90l-149 -707h-326z" />
    <glyph glyph-name="s" unicode="s" horiz-adv-x="909" 
d="M1040 807h-305l3.5 28t3.5 30t0.5 24.5t-3.5 25.5q-10 50 -80 50q-50 0 -84.5 -24t-44.5 -73q-8 -41 13 -66.5t63 -49.5q24 -12 63.5 -30.5t64 -30.5t59 -30.5t56 -35.5t46 -39.5t37.5 -48t22.5 -57t9 -70t-9.5 -82.5q-20 -93 -69 -164.5t-118 -114.5t-151 -64.5
t-174 -21.5q-205 0 -299.5 94.5t-44.5 292.5h312q-18 -69 -4 -117q17 -55 83 -55q54 0 92 27.5t50 81.5q10 58 -25 88q-33 20 -121.5 61t-149 81.5t-95.5 92.5q-61 94 -35 215q24 119 101 201t177.5 118t218.5 36q91 0 162.5 -22.5t120.5 -68.5t63.5 -116.5t-8.5 -165.5z
" />
    <glyph glyph-name="t" unicode="t" horiz-adv-x="681" 
d="M348 911h-129l49 236h129l70 328h326l-70 -328h156l-50 -236h-155l-129 -604q-10 -46 4.5 -63t50.5 -17q25 4 84 4l-49 -229q-130 -18 -213 -18q-133 0 -188 67t-27 197z" />
    <glyph glyph-name="u" unicode="u" 
d="M920 0h-304l31 141h-4q-39 -70 -116 -124t-150 -54q-141 0 -203 62.5t-37 179.5l201 942h326l-175 -821q-15 -102 60 -97q43 2 74.5 27.5t40.5 69.5l174 821h325z" />
    <glyph glyph-name="v" unicode="v" horiz-adv-x="909" 
d="M590 1147l-49 -741h4l274 741h318l-496 -1147h-373l-6 1147h328z" />
    <glyph glyph-name="w" unicode="w" horiz-adv-x="1366" 
d="M1071 1147l-41 -741h4l248 741h311l-465 -1147h-348l35 596h-4l-225 -596h-348l24 1147h316l-66 -741h4l277 741h278z" />
    <glyph glyph-name="x" unicode="x" horiz-adv-x="909" 
d="M801 1147h325l-376 -574l141 -573h-326l-35 330h-4l-174 -330h-334l392 573l-136 574h324l29 -322h4z" />
    <glyph glyph-name="y" unicode="y" horiz-adv-x="909" 
d="M584 1147l-47 -741h4l270 741h319l-415 -981q-19 -40 -45.5 -100t-43 -96t-41 -85t-45 -78.5t-49.5 -64.5t-60.5 -55.5t-71.5 -39t-89.5 -26.5t-107.5 -8q-32 0 -73 5t-54 5l51 242q45 -5 61 -8q29 -5 66.5 10.5t44.5 46.5q10 43 4 195l-6 1038h328z" />
    <glyph glyph-name="z" unicode="z" horiz-adv-x="796" 
d="M240 891l55 256h717l-51 -238l-510 -653h372l-55 -256h-739l49 227l512 664h-350z" />
    <glyph glyph-name="braceleft" unicode="{" horiz-adv-x="561" 
d="M158 111l71 331q20 93 -3 145.5t-103 74.5v4q156 20 201 223l79 377q16 78 43 131t84 88q18 11 36.5 19t33.5 13.5t40 9.5t38.5 6t47.5 2.5t49.5 0.5h61.5h68v-4q-93 -20 -137.5 -76.5t-65.5 -152.5l-79 -377q-25 -115 -73 -175.5t-151 -82.5v-4q67 -9 97.5 -51.5
t27.5 -100t-16 -125.5l-74 -352q-10 -53 -9.5 -96t29 -77t85.5 -50v-5q-98 -2 -170 -1t-123.5 17.5t-77.5 53.5q-21 26 -25.5 71t0 75.5t15.5 87.5z" />
    <glyph glyph-name="bar" unicode="|" horiz-adv-x="952" 
d="M510 1767h260v-2355h-260v2355z" />
    <glyph glyph-name="braceright" unicode="}" horiz-adv-x="561" 
d="M694 1266l-80 -375q-19 -89 4 -150.5t103 -72.5v-4q-50 -6 -86 -24t-58 -49.5t-34.5 -65t-22.5 -83.5l-71 -331q-16 -80 -39 -138t-70 -96q-42 -36 -99.5 -52.5t-129.5 -18t-170 0.5v5q92 21 137 75.5t65 149.5l74 350q10 46 19.5 78t26.5 66t40 57t58.5 43t82.5 33v4
q-65 15 -95 49.5t-31 86t14 122.5l80 379q21 96 -2 153t-103 74v4h68h61.5t49.5 -0.5t46.5 -2.5t36.5 -5.5t36 -9t28.5 -13t28.5 -18.5q30 -25 40 -64t6.5 -71.5t-14.5 -85.5z" />
    <glyph glyph-name="asciitilde" unicode="~" 
d="M1012 735l86 -149q-88 -111 -125 -147q-96 -92 -191 -93q-53 0 -127 34t-136.5 67.5t-88.5 33.5q-20 0 -40.5 -8.5t-34.5 -18t-34 -32.5t-28.5 -33.5t-29.5 -40t-25 -35.5l-86 152q36 52 68 90.5t75 79t90 62.5t94 22q45 0 99.5 -21t96 -46.5t86.5 -46.5t73 -21
q22 0 42 8.5t40.5 28t32.5 33.5t34 43t29 38z" />
    <glyph glyph-name="uni00A0" unicode="&#xa0;" horiz-adv-x="512" 
 />
    <glyph glyph-name="exclamdown" unicode="&#xa1;" horiz-adv-x="681" 
d="M389 653h184l-51 -655l-82 -385h-360l82 385zM758 1147l-74 -350h-346l74 350h346z" />
    <glyph glyph-name="cent" unicode="&#xa2;" 
d="M885 1403h176l-109 -252q120 -41 152 -146.5t-17 -283.5h-288q28 134 18 197q0 8 -6 14l-279 -750q16 -4 27 -4q66 0 98.5 28.5t51.5 96.5q25 84 43 162h292q-17 -80 -36 -142t-48 -121.5t-67 -101t-89 -73.5t-119 -48t-153 -16q-50 0 -75 4l-113 -268h-176l121 301
q-40 21 -68 48.5t-41.5 62t-19.5 68t-2 79.5t9.5 81.5t16.5 88.5l58 268q13 58 22 93.5t25 84.5t36 81.5t49.5 69t70 64.5t92.5 50q101 41 245 41zM575 791l-92 -435q-3 -11 -7.5 -36.5t-7 -56t6.5 -34.5l275 734l-12 2q-11 2 -21 2q-105 0 -142 -176z" />
    <glyph glyph-name="sterling" unicode="&#xa3;" 
d="M340 684h-184l26 127h131q-59 146 -18 358q25 123 109.5 217t197.5 140.5t234 46.5q186 0 283.5 -97t76.5 -280l-25 -129h-313q6 29 10 47t7.5 47.5t2.5 48t-6 41t-16.5 35.5t-31.5 22t-48 9q-68 0 -108 -53.5t-54 -128.5q-7 -32 -10.5 -64t-2 -70.5t3 -60.5t7 -68.5
t6.5 -60.5h293l-26 -127h-258q-1 -9 -4.5 -43.5t-6.5 -52.5q-23 -109 -112.5 -207t-210.5 -176v-4q116 61 235 61q64 0 142 -20.5t100 -20.5q101 0 193 70l14 -256q-88 -37 -149.5 -54.5t-129.5 -17.5q-62 0 -175 35t-175 35q-119 0 -239 -66l-70 219q108 64 188.5 162.5
t102.5 204.5q17 78 10 131z" />
    <glyph glyph-name="currency" unicode="&#xa4;" 
d="M59 281l109 90q-24 72 -28.5 125t10.5 137q29 143 133 268l-72 88l197 164l69 -90q146 78 281 78q151 0 258 -78l110 90l127 -164l-108 -88q45 -126 16 -266q-33 -151 -131 -264l72 -90l-197 -162l-69 90q-150 -80 -283 -80q-150 0 -256 80l-111 -90zM602 383
q105 0 194 75t111 177q22 101 -35 176.5t-163 75.5q-105 0 -194.5 -75t-111.5 -177q-22 -101 35.5 -176.5t163.5 -75.5z" />
    <glyph glyph-name="yen" unicode="&#xa5;" 
d="M1384 1536l-555 -891l-14 -65h186l-26 -127h-187l-20 -101h186l-28 -127h-187l-47 -225h-368l47 225h-183l29 127h182l21 101h-182l26 127h182l15 63l-170 893h393l45 -502h4l262 502h389z" />
    <glyph glyph-name="brokenbar" unicode="&#xa6;" horiz-adv-x="954" 
d="M510 1591h260v-825h-260v825zM510 414h260v-824h-260v824z" />
    <glyph glyph-name="section" unicode="&#xa7;" 
d="M559 813q-27 -17 -50.5 -43.5t-29.5 -52.5q0 -15 -2.5 -23.5t2.5 -21.5t6.5 -20t9.5 -18.5t12 -17.5t13.5 -16.5t14.5 -15.5t15 -14.5t15 -14.5q24 -25 78 -73t78 -74q26 23 37 34.5t23 31.5t18 44q6 16 2 33t-6.5 22.5t-12 18t-12.5 18.5q-21 27 -49.5 56.5t-48.5 47.5
t-59.5 52t-53.5 47zM88 14h295q-7 -38 -7.5 -72.5t21 -58.5t62.5 -24q61 0 101 27t48 73q4 30 -4.5 59.5t-20.5 50.5t-40 49.5t-46.5 43.5t-58.5 46.5t-57 45.5q-28 23 -49.5 43t-45 47t-40 53t-30.5 59t-20 68t-5 77t10 87q19 85 81.5 168t145.5 133q-74 79 -47 219
q14 67 53 130.5t98 116.5t143.5 85.5t180.5 32.5q174 0 268.5 -94.5t49.5 -264.5h-293q32 123 -78 123q-47 0 -78.5 -25t-40.5 -71q-11 -48 21 -92q39 -51 139 -138t127 -114q74 -74 107.5 -154t11.5 -180q-13 -64 -39 -116.5t-57 -85t-56 -52t-50.5 -34t-27.5 -15.5
q41 -44 56.5 -108t1.5 -132q-29 -135 -106.5 -226t-184.5 -131t-242 -40q-176 0 -256.5 108t-40.5 283z" />
    <glyph glyph-name="dieresis" unicode="&#xa8;" horiz-adv-x="681" 
d="M295 1577h323l-57 -266h-323zM680 1311l57 266h324l-57 -266h-324z" />
    <glyph glyph-name="copyright" unicode="&#xa9;" horiz-adv-x="1699" 
d="M1210 627h183q-46 -142 -172 -228t-271 -86q-131 0 -220 62t-121 167.5t-5 235.5q42 203 190 333t349 130q148 0 233.5 -81t81.5 -224h-182q3 73 -43.5 111t-126.5 38q-122 0 -202 -85t-107 -214q-14 -80 -6.5 -148t55 -113.5t127.5 -45.5q79 0 148.5 39.5t88.5 108.5z
M842 -37q-118 0 -217 24.5t-170.5 68t-125 104t-85 131.5t-46 151t-12 162t20.5 166q25 115 77 227t138 217t194.5 184t255.5 127t312 48q111 0 206 -22.5t167 -63.5t127 -98.5t89.5 -127t52 -149.5t16 -166t-20.5 -176q-35 -166 -124.5 -314t-216.5 -257t-293 -172.5
t-345 -63.5zM1139 1376q-271 0 -472.5 -167.5t-258.5 -438.5q-59 -274 71.5 -442t401.5 -168q270 0 476 172t265 446q57 269 -77.5 433.5t-405.5 164.5z" />
    <glyph glyph-name="ordfeminine" unicode="&#xaa;" horiz-adv-x="614" 
d="M614 1092l25 108q-18 -8 -51 -21.5t-46.5 -20.5t-32.5 -20.5t-28.5 -31.5t-15.5 -45q-14 -76 51 -76q41 0 66 33t32 74zM780 864h-194l2 62h-2q-49 -43 -92.5 -62.5t-100.5 -19.5q-87 0 -129.5 50.5t-23.5 133.5q11 52 29 85t59 71q16 19 46 35.5t53 25t65 21.5
q127 35 163 63q15 27 19 43q13 60 -51 60q-28 0 -45 -6t-31 -27q-6 -8 -10 -18.5t-8 -26t-5 -19.5h-202q20 123 110 185q82 53 211 53q136 0 194.5 -45t32.5 -166l-88 -420q-8 -38 -2 -78z" />
    <glyph glyph-name="guillemotleft" unicode="&#xab;" 
d="M989 252l-317 237l63 299l420 246l-57 -268l-236 -129l185 -119zM498 252l-318 237l64 299l420 246l-58 -268l-233 -129l182 -119z" />
    <glyph glyph-name="logicalnot" unicode="&#xac;" 
d="M786 236l78 358h-684l49 235h920l-127 -593h-236z" />
    <glyph glyph-name="uni00AD" unicode="&#xad;" horiz-adv-x="681" 
d="M698 485h-508l66 308h508z" />
    <glyph glyph-name="registered" unicode="&#xae;" horiz-adv-x="1699" 
d="M842 -37q-118 0 -217 24.5t-170.5 68t-125 104t-85 131.5t-46 151t-12 162t20.5 166q25 115 77 227t138 217t194.5 184t255.5 127t312 48q111 0 206 -22.5t167 -63.5t127 -98.5t89.5 -127t52 -149.5t16 -166t-20.5 -176q-35 -166 -124.5 -314t-216.5 -257t-293 -172.5
t-345 -63.5zM1139 1376q-271 0 -472.5 -167.5t-258.5 -438.5q-59 -274 71.5 -442t401.5 -168q270 0 476 172t265 446q57 269 -77.5 433.5t-405.5 164.5zM811 678l-74 -348h-190l186 870h488q143 -5 202.5 -66t30.5 -202q-26 -116 -96.5 -171t-192.5 -63l133 -368h-219
l-118 348h-150zM844 827h254q78 -2 117 23t55 104q6 27 -2.5 46.5t-23.5 29.5t-41.5 15.5t-48 6.5t-52.5 1h-211z" />
    <glyph glyph-name="macron" unicode="&#xaf;" horiz-adv-x="681" 
d="M1016 1358h-770l39 184h770z" />
    <glyph glyph-name="degree" unicode="&#xb0;" horiz-adv-x="819" 
d="M979 1229q-28 -127 -137.5 -217t-235.5 -90q-128 0 -198.5 90t-42.5 217q25 126 134 216.5t236 90.5q126 0 198 -90.5t46 -216.5zM762 1229q7 37 -14 63.5t-58 26.5t-68.5 -26.5t-39.5 -63.5q-9 -37 11.5 -63.5t57.5 -26.5t69.5 26.5t41.5 63.5z" />
    <glyph glyph-name="plusminus" unicode="&#xb1;" 
d="M565 803l51 241h236l-51 -241h342l-49 -236h-342l-56 -256h-235l55 256h-342l49 236h342zM47 -25l51 236h920l-51 -236h-920z" />
    <glyph glyph-name="twosuperior" unicode="&#xb2;" horiz-adv-x="614" 
d="M485 1247l-8 -45h-211l10 49q30 138 123 211.5t242 73.5q138 0 200.5 -64t35.5 -190q-18 -82 -59 -139.5t-122 -124.5l-102 -76q-144 -105 -166 -162h344l-35 -166h-598l6 31q41 187 293 391l121 99q44 37 66 71.5t32 85.5q9 39 -6 66t-59 24q-79 -4 -107 -135z" />
    <glyph glyph-name="threesuperior" unicode="&#xb3;" horiz-adv-x="614" 
d="M408 1010l30 147q5 0 22.5 0.5t25.5 1t23.5 2t25.5 4t23 7t24 10.5q23 14 39.5 44.5t21.5 59.5q22 94 -57 94q-50 0 -74 -49q-6 -12 -11 -27t-9 -33t-7 -26h-213l15 68q22 99 124 161t214 62q133 0 196.5 -58.5t38.5 -179.5q-30 -146 -178 -204l-2 -4q150 -35 111 -226
q-30 -137 -124.5 -204.5t-242.5 -67.5q-137 0 -199.5 67t-36.5 189l15 63h211q-16 -84 -15 -106q0 -60 62 -60q81 0 108 119q20 101 -24 129q-17 10 -42.5 13.5t-48 2.5t-46.5 1z" />
    <glyph glyph-name="acute" unicode="&#xb4;" horiz-adv-x="681" 
d="M674 1602h426l-414 -304h-280z" />
    <glyph glyph-name="mu" unicode="&#xb5;" 
d="M920 0h-304l31 141h-4q-34 -62 -99 -109.5t-128 -47.5l-78 -371h-326l326 1534h326l-175 -821q-15 -102 60 -97q43 2 74.5 27.5t40.5 69.5l174 821h325z" />
    <glyph glyph-name="paragraph" unicode="&#xb6;" horiz-adv-x="1126" 
d="M729 -238l328 1538h-135l-328 -1538h-277l226 1059q-157 0 -231.5 93.5t-39.5 256.5q41 198 170.5 281.5t348.5 83.5h667l-49 -236h-76l-327 -1538h-277z" />
    <glyph glyph-name="periodcentered" unicode="&#xb7;" horiz-adv-x="681" 
d="M586 336h-346l73 350h346z" />
    <glyph glyph-name="cedilla" unicode="&#xb8;" horiz-adv-x="681" 
d="M-10 -418l61 94q15 -4 51.5 -16.5t63 -18.5t53.5 -6q43 0 80 20t43 56q6 33 -15.5 51.5t-52.5 20.5q-37 3 -90 -21l-43 50l156 188h119l-109 -127l2 -4q25 10 78 10q79 -3 127.5 -43.5t32.5 -114.5q-14 -62 -65 -108t-112 -67t-122 -21q-70 0 -125.5 14t-132.5 43z" />
    <glyph glyph-name="onesuperior" unicode="&#xb9;" horiz-adv-x="614" 
d="M438 635l133 622h-202l28 142q43 -1 84.5 5.5t83.5 21t75 43t50 67.5h150l-191 -901h-211z" />
    <glyph glyph-name="ordmasculine" unicode="&#xba;" horiz-adv-x="614" 
d="M256 1057l59 280q50 236 326 236q278 0 227 -236l-59 -280q-59 -213 -322 -213q-80 0 -136 19.5t-84 68.5t-11 125zM528 1352l-65 -308q-6 -59 53 -59q60 0 78 59l65 308q18 80 -47 80q-66 0 -84 -80z" />
    <glyph glyph-name="guillemotright" unicode="&#xbb;" 
d="M1053 489l-420 -237l57 266l232 119l-181 129l58 268l317 -246zM561 489l-420 -237l58 266l233 119l-182 129l57 268l318 -246z" />
    <glyph glyph-name="onequarter" unicode="&#xbc;" horiz-adv-x="1536" 
d="M1112 330h166l63 299h-4zM444 0h-178l1166 1536h172zM913 176l37 172l430 553h232l-123 -571h88l-33 -154h-88l-37 -176h-211l37 176h-332zM367 635l133 622h-203l29 142q43 -1 84.5 5.5t83 21t74.5 43t50 67.5h150l-190 -901h-211z" />
    <glyph glyph-name="onehalf" unicode="&#xbd;" horiz-adv-x="1536" 
d="M399 0h-178l1165 1536h173zM358 635l134 622h-203l28 142q43 -1 84.5 5.5t83.5 21t75 43t50 67.5h150l-191 -901h-211zM1266 633l-11 -45h-211l11 49q29 138 122.5 211.5t243.5 73.5q138 0 199.5 -63.5t34.5 -190.5q-18 -84 -58.5 -142t-121.5 -123l-103 -75
q-142 -109 -166 -162h344l-34 -166h-598l6 31q40 183 293 391l120 98q44 37 66.5 72t32.5 86q9 38 -6.5 65.5t-57.5 24.5q-78 -4 -106 -135z" />
    <glyph glyph-name="threequarters" unicode="&#xbe;" horiz-adv-x="1536" 
d="M1126 330h166l64 299h-4zM506 0h-178l1165 1536h172zM928 176l37 172l430 553h231l-123 -571h88l-32 -154h-89l-36 -176h-211l37 176h-332zM401 1010l31 147q1 0 26 1t32 1.5t26.5 3t32.5 7.5t26 12q23 14 40 45t22 59q22 94 -57 94q-50 0 -74 -49q-6 -12 -11 -27t-9 -33
t-7 -26h-213l15 68q22 99 123.5 161t213.5 62q134 0 197.5 -58.5t38.5 -179.5q-30 -146 -178 -204l-2 -4q149 -34 110 -226q-30 -137 -124 -204.5t-242 -67.5q-137 0 -199.5 67t-36.5 189l15 63h211q-16 -84 -15 -106q0 -60 62 -60q81 0 108 119q20 101 -24 129
q-17 10 -43 13.5t-48.5 2.5t-46.5 1z" />
    <glyph glyph-name="questiondown" unicode="&#xbf;" 
d="M676 98h325q-35 -216 -189.5 -350.5t-367.5 -134.5q-98 0 -175.5 22t-134 67t-77.5 122t0 178q20 90 70 164t133 156q18 17 54.5 51t64 61.5t51.5 52.5q33 36 52.5 70.5t27 56t25.5 80.5h309q-17 -94 -41 -162t-72 -126q-2 -2 -59 -56.5t-81.5 -80t-68.5 -75.5t-67 -91
t-31 -78q-13 -60 7.5 -98t78.5 -38q35 0 62 13.5t43 31t29 50.5t18.5 54.5t13.5 59.5zM621 1180h346l-74 -351h-346z" />
    <glyph glyph-name="Agrave" unicode="&#xc0;" horiz-adv-x="1138" 
d="M381 0h-363l662 1536h434l8 -1536h-364l12 299h-283zM793 569l47 688h-4l-252 -688h209zM575 1991h426l140 -303h-281z" />
    <glyph glyph-name="Aacute" unicode="&#xc1;" horiz-adv-x="1138" 
d="M381 0h-363l662 1536h434l8 -1536h-364l12 299h-283zM793 569l47 688h-4l-252 -688h209zM987 1991h426l-416 -303h-280z" />
    <glyph glyph-name="Acircumflex" unicode="&#xc2;" horiz-adv-x="1138" 
d="M381 0h-363l662 1536h434l8 -1536h-364l12 299h-283zM793 569l47 688h-4l-252 -688h209zM485 1647l310 303h338l184 -303h-303l-80 153l-148 -153h-301z" />
    <glyph glyph-name="Atilde" unicode="&#xc3;" horiz-adv-x="1138" 
d="M381 0h-363l662 1536h434l8 -1536h-364l12 299h-283zM793 569l47 688h-4l-252 -688h209zM1067 1659q-74 0 -162 39q-5 2 -24 10t-26 11t-21 8t-24 6.5t-19 1.5q-35 0 -64.5 -26t-44.5 -62h-162q116 288 314 288q64 0 161 -39q6 -2 25.5 -11.5t27 -12.5t22 -8t25 -7
t21.5 -2q31 0 62.5 23.5t38.5 52.5h163q-38 -119 -118.5 -195.5t-194.5 -76.5z" />
    <glyph glyph-name="Adieresis" unicode="&#xc4;" horiz-adv-x="1138" 
d="M381 0h-363l662 1536h434l8 -1536h-364l12 299h-283zM793 569l47 688h-4l-252 -688h209zM606 1966h324l-58 -266h-323zM991 1700l58 266h323l-57 -266h-324z" />
    <glyph glyph-name="Aring" unicode="&#xc5;" horiz-adv-x="1138" 
d="M381 0h-363l662 1536h434l8 -1536h-364l12 299h-283zM793 569l47 688h-4l-252 -688h209zM909 1587q-95 0 -148.5 68.5t-33.5 163.5t103.5 162t177.5 67t147 -67.5t33 -161.5t-102 -163t-177 -69zM981 1925q-42 0 -81 -32t-48 -74q-9 -43 16 -75t68 -32q42 0 81 32.5
t48 74.5q8 41 -17.5 73.5t-66.5 32.5z" />
    <glyph glyph-name="AE" unicode="&#xc6;" horiz-adv-x="1593" 
d="M717 0l69 332h-290l-166 -332h-377l881 1536h1003l-63 -307h-455l-62 -287h437l-66 -307h-436l-70 -328h469l-65 -307h-809zM973 1229h-33l-303 -590h209z" />
    <glyph glyph-name="Ccedilla" unicode="&#xc7;" horiz-adv-x="1138" 
d="M356 -188l129 155q-215 10 -286.5 132.5t-22.5 353.5l133 630q54 251 197.5 370.5t390.5 119.5q238 0 342.5 -108.5t54.5 -336.5l-26 -129h-361l21 99q20 98 0.5 148t-72.5 50q-80 1 -119 -38.5t-55 -120.5l-164 -760q-29 -137 100 -137q35 0 64 14.5t47 35.5t33 53
t22.5 58t14.5 60l28 139h361l-39 -188q-42 -194 -176.5 -311t-368.5 -134l-82 -94l2 -4q25 10 78 10q79 -3 127.5 -43.5t32.5 -114.5q-14 -62 -65 -108t-112 -67t-122 -21q-70 0 -125.5 14t-132.5 43l61 94q15 -4 51.5 -16.5t63 -18.5t53.5 -6q43 0 80 20t43 56
q6 33 -15.5 51.5t-52.5 20.5q-37 3 -90 -21z" />
    <glyph glyph-name="Egrave" unicode="&#xc8;" 
d="M944 0h-850l326 1536h825l-63 -307h-465l-62 -283h451l-66 -307h-450l-70 -332h490zM518 1991h426l139 -303h-280z" />
    <glyph glyph-name="Eacute" unicode="&#xc9;" 
d="M944 0h-850l326 1536h825l-63 -307h-465l-62 -283h451l-66 -307h-450l-70 -332h490zM930 1991h426l-416 -303h-281z" />
    <glyph glyph-name="Ecircumflex" unicode="&#xca;" 
d="M944 0h-850l326 1536h825l-63 -307h-465l-62 -283h451l-66 -307h-450l-70 -332h490zM449 1647l309 303h338l184 -303h-303l-80 153l-147 -153h-301z" />
    <glyph glyph-name="Edieresis" unicode="&#xcb;" 
d="M944 0h-850l326 1536h825l-63 -307h-465l-62 -283h451l-66 -307h-450l-70 -332h490zM549 1966h323l-57 -266h-323zM934 1700l57 266h324l-58 -266h-323z" />
    <glyph glyph-name="Igrave" unicode="&#xcc;" horiz-adv-x="569" 
d="M465 0h-361l326 1536h361zM291 1991h426l139 -303h-281z" />
    <glyph glyph-name="Iacute" unicode="&#xcd;" horiz-adv-x="569" 
d="M465 0h-361l326 1536h361zM702 1991h426l-415 -303h-281z" />
    <glyph glyph-name="Icircumflex" unicode="&#xce;" horiz-adv-x="569" 
d="M465 0h-361l326 1536h361zM221 1647l309 303h338l185 -303h-303l-80 153l-148 -153h-301z" />
    <glyph glyph-name="Idieresis" unicode="&#xcf;" horiz-adv-x="569" 
d="M465 0h-361l326 1536h361zM322 1966h323l-57 -266h-324zM707 1700l57 266h323l-57 -266h-323z" />
    <glyph glyph-name="Eth" unicode="&#xd0;" horiz-adv-x="1138" 
d="M94 0l135 639h-90l66 307h90l125 590h366q152 0 249.5 -13t166.5 -59q44 -29 68.5 -71.5t29.5 -95t1 -101.5t-17 -111l-139 -655q-29 -129 -90.5 -221.5t-141.5 -136.5q-133 -72 -333 -72h-486zM723 1260l-68 -314h152l-66 -307h-151l-76 -363h45q118 0 165 47t77 189
l119 553q9 44 10.5 75t-6.5 53t-22 35t-42 20t-58.5 9.5t-78.5 2.5z" />
    <glyph glyph-name="Ntilde" unicode="&#xd1;" horiz-adv-x="1138" 
d="M682 0l-98 860l-4 -4l-150 -856h-342l326 1536h370l97 -858h6l147 858h342l-325 -1536h-369zM1067 1659q-74 0 -162 39q-5 2 -24 10t-26 11t-21 8t-24 6.5t-19 1.5q-35 0 -64.5 -26t-44.5 -62h-162q116 288 314 288q64 0 161 -39q6 -2 25.5 -11.5t27 -12.5t22 -8t25 -7
t21.5 -2q31 0 62.5 23.5t38.5 52.5h163q-38 -119 -118.5 -195.5t-194.5 -76.5z" />
    <glyph glyph-name="Ograve" unicode="&#xd2;" horiz-adv-x="1138" 
d="M797 459l133 631q6 28 9 48t5 46.5t-3 44t-14.5 34.5t-29.5 25t-49 8q-33 0 -60 -13t-45 -32t-32 -48t-22 -55t-15 -58l-133 -631q-50 -219 84 -219q34 0 61 15t44 36t31.5 54t21 56.5t14.5 57.5zM1296 1114l-133 -625q-29 -134 -74 -229t-115.5 -163t-171.5 -101
t-237 -33q-180 0 -277 59.5t-118 176.5t16 290l133 625q46 221 198.5 340t389.5 119q236 0 335.5 -118.5t53.5 -340.5zM575 1991h426l140 -303h-281z" />
    <glyph glyph-name="Oacute" unicode="&#xd3;" horiz-adv-x="1138" 
d="M797 459l133 631q6 28 9 48t5 46.5t-3 44t-14.5 34.5t-29.5 25t-49 8q-33 0 -60 -13t-45 -32t-32 -48t-22 -55t-15 -58l-133 -631q-50 -219 84 -219q34 0 61 15t44 36t31.5 54t21 56.5t14.5 57.5zM1296 1114l-133 -625q-29 -134 -74 -229t-115.5 -163t-171.5 -101
t-237 -33q-180 0 -277 59.5t-118 176.5t16 290l133 625q46 221 198.5 340t389.5 119q236 0 335.5 -118.5t53.5 -340.5zM987 1991h426l-416 -303h-280z" />
    <glyph glyph-name="Ocircumflex" unicode="&#xd4;" horiz-adv-x="1138" 
d="M797 459l133 631q6 28 9 48t5 46.5t-3 44t-14.5 34.5t-29.5 25t-49 8q-33 0 -60 -13t-45 -32t-32 -48t-22 -55t-15 -58l-133 -631q-50 -219 84 -219q34 0 61 15t44 36t31.5 54t21 56.5t14.5 57.5zM1296 1114l-133 -625q-29 -134 -74 -229t-115.5 -163t-171.5 -101
t-237 -33q-180 0 -277 59.5t-118 176.5t16 290l133 625q46 221 198.5 340t389.5 119q236 0 335.5 -118.5t53.5 -340.5zM506 1647l309 303h338l184 -303h-303l-80 153l-147 -153h-301z" />
    <glyph glyph-name="Otilde" unicode="&#xd5;" horiz-adv-x="1138" 
d="M797 459l133 631q6 28 9 48t5 46.5t-3 44t-14.5 34.5t-29.5 25t-49 8q-33 0 -60 -13t-45 -32t-32 -48t-22 -55t-15 -58l-133 -631q-50 -219 84 -219q34 0 61 15t44 36t31.5 54t21 56.5t14.5 57.5zM1296 1114l-133 -625q-29 -134 -74 -229t-115.5 -163t-171.5 -101
t-237 -33q-180 0 -277 59.5t-118 176.5t16 290l133 625q46 221 198.5 340t389.5 119q236 0 335.5 -118.5t53.5 -340.5zM1067 1659q-74 0 -162 39q-5 2 -24 10t-26 11t-21 8t-24 6.5t-19 1.5q-35 0 -64.5 -26t-44.5 -62h-162q116 288 314 288q64 0 161 -39q6 -2 25.5 -11.5
t27 -12.5t22 -8t25 -7t21.5 -2q31 0 62.5 23.5t38.5 52.5h163q-38 -119 -118.5 -195.5t-194.5 -76.5z" />
    <glyph glyph-name="Odieresis" unicode="&#xd6;" horiz-adv-x="1138" 
d="M797 459l133 631q6 28 9 48t5 46.5t-3 44t-14.5 34.5t-29.5 25t-49 8q-33 0 -60 -13t-45 -32t-32 -48t-22 -55t-15 -58l-133 -631q-50 -219 84 -219q34 0 61 15t44 36t31.5 54t21 56.5t14.5 57.5zM1296 1114l-133 -625q-29 -134 -74 -229t-115.5 -163t-171.5 -101
t-237 -33q-180 0 -277 59.5t-118 176.5t16 290l133 625q46 221 198.5 340t389.5 119q236 0 335.5 -118.5t53.5 -340.5zM606 1966h324l-58 -266h-323zM991 1700l58 266h323l-57 -266h-324z" />
    <glyph glyph-name="multiply" unicode="&#xd7;" 
d="M457 522l-219 279l202 166l217 -279l338 279l131 -166l-335 -279l217 -278l-201 -166l-219 278l-336 -278l-133 166z" />
    <glyph glyph-name="Oslash" unicode="&#xd8;" horiz-adv-x="1138" 
d="M674 1090l-105 -488h4l353 465l4 23q6 28 9 48t5 46.5t-3 44t-14.5 34.5t-29.5 25t-49 8q-33 0 -60 -13t-45 -32t-32 -48t-22 -55t-15 -58zM797 459l80 377h-5l-344 -447q-8 -149 97 -149q34 0 61 15t44 36t31.5 54t21 56.5t14.5 57.5zM1208 1485l152 192l160 -94
l-215 -270q15 -69 -9 -199l-133 -625q-29 -134 -74 -229t-115.5 -163t-171.5 -101t-237 -33q-181 0 -276 62l-148 -199l-147 98l188 236q-41 116 4 329l133 625q46 221 198.5 340t389.5 119q200 0 301 -88z" />
    <glyph glyph-name="Ugrave" unicode="&#xd9;" horiz-adv-x="1138" 
d="M176 424l236 1112h360l-246 -1159q-30 -137 97 -137q64 0 102 44t51 103l244 1149h360l-235 -1112q-98 -461 -584 -461q-234 0 -334.5 114.5t-50.5 346.5zM575 1991h426l140 -303h-281z" />
    <glyph glyph-name="Uacute" unicode="&#xda;" horiz-adv-x="1138" 
d="M176 424l236 1112h360l-246 -1159q-30 -137 97 -137q64 0 102 44t51 103l244 1149h360l-235 -1112q-98 -461 -584 -461q-234 0 -334.5 114.5t-50.5 346.5zM987 1991h426l-416 -303h-280z" />
    <glyph glyph-name="Ucircumflex" unicode="&#xdb;" horiz-adv-x="1138" 
d="M176 424l236 1112h360l-246 -1159q-30 -137 97 -137q64 0 102 44t51 103l244 1149h360l-235 -1112q-98 -461 -584 -461q-234 0 -334.5 114.5t-50.5 346.5zM506 1647l309 303h338l184 -303h-303l-80 153l-147 -153h-301z" />
    <glyph glyph-name="Udieresis" unicode="&#xdc;" horiz-adv-x="1138" 
d="M176 424l236 1112h360l-246 -1159q-30 -137 97 -137q64 0 102 44t51 103l244 1149h360l-235 -1112q-98 -461 -584 -461q-234 0 -334.5 114.5t-50.5 346.5zM606 1966h324l-58 -266h-323zM991 1700l58 266h323l-57 -266h-324z" />
    <glyph glyph-name="Yacute" unicode="&#xdd;" horiz-adv-x="1138" 
d="M713 1536l73 -502h5l290 502h361l-559 -891l-138 -645h-360l137 645l-174 891h365zM987 1991h426l-416 -303h-280z" />
    <glyph glyph-name="Thorn" unicode="&#xde;" horiz-adv-x="1138" 
d="M696 1065l-82 -385h64q55 0 86 5.5t60 24.5t46.5 57.5t32.5 104.5q11 53 11.5 88t-7.5 56t-30 32t-47.5 14t-69.5 3h-64zM109 0l325 1536h361l-41 -195h67q79 0 140.5 -6t116 -21t92 -39t65 -60t39 -85t9.5 -113.5t-19 -144.5q-29 -135 -83 -227t-137 -144.5t-184 -75
t-237 -22.5h-68l-86 -403h-360z" />
    <glyph glyph-name="germandbls" unicode="&#xdf;" 
d="M657 752l50 235q15 -1 28.5 2t23.5 6t19.5 13t15.5 15.5t12.5 20.5t9.5 21t8 24.5t6 23t5 25.5t5 23q18 88 16 116q-6 60 -72 60q-77 0 -106 -100l-262 -1237h-326l256 1206q39 180 172.5 273.5t329.5 93.5q187 0 277 -111.5t40 -294.5q-29 -104 -71.5 -166t-132.5 -108
l-3 -4q42 -13 70 -51t37 -82.5t11 -90.5t-7 -75l-49 -232q-43 -178 -146.5 -283.5t-275.5 -111.5q-47 -2 -100 33l49 235q70 -13 100.5 19.5t50.5 126.5l52 241q12 73 -6 105.5t-87 28.5z" />
    <glyph glyph-name="agrave" unicode="&#xe0;" 
d="M696 377l39 180q-20 -9 -87.5 -37.5t-94.5 -46.5q-88 -54 -107 -147q-12 -55 13 -89t82 -34q113 0 155 174zM651 0v102q-83 -73 -151.5 -106t-159.5 -33q-137 0 -200 84.5t-34 222.5q20 93 58 162.5t91 113t103 68.5t115 45q27 8 74 21t72.5 20.5t61 22t55.5 29.5
t37 38.5t24 53.5q10 50 -10.5 84.5t-67.5 34.5q-41 0 -69 -12.5t-45 -38.5t-26.5 -51t-20.5 -65q-1 -4 -1.5 -6.5t-1.5 -5.5h-326q36 208 183 306q134 90 342 90q240 0 322 -80.5t42 -270.5l-149 -702q-10 -56 0 -127h-318zM434 1602h426l141 -304h-280z" />
    <glyph glyph-name="aacute" unicode="&#xe1;" 
d="M696 377l39 180q-20 -9 -87.5 -37.5t-94.5 -46.5q-88 -54 -107 -147q-12 -55 13 -89t82 -34q113 0 155 174zM651 0v102q-83 -73 -151.5 -106t-159.5 -33q-137 0 -200 84.5t-34 222.5q20 93 58 162.5t91 113t103 68.5t115 45q27 8 74 21t72.5 20.5t61 22t55.5 29.5
t37 38.5t24 53.5q10 50 -10.5 84.5t-67.5 34.5q-41 0 -69 -12.5t-45 -38.5t-26.5 -51t-20.5 -65q-1 -4 -1.5 -6.5t-1.5 -5.5h-326q36 208 183 306q134 90 342 90q240 0 322 -80.5t42 -270.5l-149 -702q-10 -56 0 -127h-318zM846 1602h426l-414 -304h-280z" />
    <glyph glyph-name="acircumflex" unicode="&#xe2;" 
d="M696 377l39 180q-20 -9 -87.5 -37.5t-94.5 -46.5q-88 -54 -107 -147q-12 -55 13 -89t82 -34q113 0 155 174zM651 0v102q-83 -73 -151.5 -106t-159.5 -33q-137 0 -200 84.5t-34 222.5q20 93 58 162.5t91 113t103 68.5t115 45q27 8 74 21t72.5 20.5t61 22t55.5 29.5
t37 38.5t24 53.5q10 50 -10.5 84.5t-67.5 34.5q-41 0 -69 -12.5t-45 -38.5t-26.5 -51t-20.5 -65q-1 -4 -1.5 -6.5t-1.5 -5.5h-326q36 208 183 306q134 90 342 90q240 0 322 -80.5t42 -270.5l-149 -702q-10 -56 0 -127h-318zM367 1257l309 304h338l184 -304h-303l-82 154
l-145 -154h-301z" />
    <glyph glyph-name="atilde" unicode="&#xe3;" 
d="M696 377l39 180q-20 -9 -87.5 -37.5t-94.5 -46.5q-88 -54 -107 -147q-12 -55 13 -89t82 -34q113 0 155 174zM651 0v102q-83 -73 -151.5 -106t-159.5 -33q-137 0 -200 84.5t-34 222.5q20 93 58 162.5t91 113t103 68.5t115 45q27 8 74 21t72.5 20.5t61 22t55.5 29.5
t37 38.5t24 53.5q10 50 -10.5 84.5t-67.5 34.5q-41 0 -69 -12.5t-45 -38.5t-26.5 -51t-20.5 -65q-1 -4 -1.5 -6.5t-1.5 -5.5h-326q36 208 183 306q134 90 342 90q240 0 322 -80.5t42 -270.5l-149 -702q-10 -56 0 -127h-318zM928 1270q-74 0 -162 39q-88 37 -115 37
q-35 0 -65 -26.5t-43 -62.5h-162q54 131 113 197q85 92 198 92q64 0 162 -39q6 -2 25.5 -11.5t27 -12.5t22 -8t25 -7t21.5 -2q31 0 63 23.5t39 52.5h164q-38 -119 -118.5 -195.5t-194.5 -76.5z" />
    <glyph glyph-name="adieresis" unicode="&#xe4;" 
d="M696 377l39 180q-20 -9 -87.5 -37.5t-94.5 -46.5q-88 -54 -107 -147q-12 -55 13 -89t82 -34q113 0 155 174zM651 0v102q-83 -73 -151.5 -106t-159.5 -33q-137 0 -200 84.5t-34 222.5q20 93 58 162.5t91 113t103 68.5t115 45q27 8 74 21t72.5 20.5t61 22t55.5 29.5
t37 38.5t24 53.5q10 50 -10.5 84.5t-67.5 34.5q-41 0 -69 -12.5t-45 -38.5t-26.5 -51t-20.5 -65q-1 -4 -1.5 -6.5t-1.5 -5.5h-326q36 208 183 306q134 90 342 90q240 0 322 -80.5t42 -270.5l-149 -702q-10 -56 0 -127h-318zM467 1577h324l-58 -266h-323zM852 1311l57 266
h324l-57 -266h-324z" />
    <glyph glyph-name="aring" unicode="&#xe5;" 
d="M696 377l39 180q-20 -9 -87.5 -37.5t-94.5 -46.5q-88 -54 -107 -147q-12 -55 13 -89t82 -34q113 0 155 174zM651 0v102q-83 -73 -151.5 -106t-159.5 -33q-137 0 -200 84.5t-34 222.5q20 93 58 162.5t91 113t103 68.5t115 45q27 8 74 21t72.5 20.5t61 22t55.5 29.5
t37 38.5t24 53.5q10 50 -10.5 84.5t-67.5 34.5q-41 0 -69 -12.5t-45 -38.5t-26.5 -51t-20.5 -65q-1 -4 -1.5 -6.5t-1.5 -5.5h-326q36 208 183 306q134 90 342 90q240 0 322 -80.5t42 -270.5l-149 -702q-10 -56 0 -127h-318zM786 1280q-95 0 -148.5 68t-33.5 163t103.5 162.5
t177.5 67.5t147 -68t33 -162t-102 -162.5t-177 -68.5zM858 1618q-42 0 -81 -32.5t-48 -74.5q-9 -43 16 -74.5t68 -31.5q42 0 81 32t48 74q9 41 -17 74t-67 33z" />
    <glyph glyph-name="ae" unicode="&#xe6;" horiz-adv-x="1478" 
d="M705 465l20 90q-34 -17 -95 -40.5t-85 -37.5q-85 -50 -107 -155q-12 -59 6 -91t78 -32q24 0 45 7t37.5 22.5t29 30t23 39.5t17.5 41.5t14 45.5t9.5 41.5t7.5 38.5zM1081 719h219l25 121q7 60 -7.5 92.5t-66.5 32.5q-71 0 -104.5 -43.5t-46.5 -114.5zM1579 504h-541
l-34 -168q-5 -37 -6.5 -70t18 -55.5t61.5 -22.5q26 0 47 10.5t33 22.5t23 37t15 39.5t10.5 44t8.5 37.5h326q-64 -416 -524 -416q-85 0 -163.5 30.5t-98.5 92.5q-137 -123 -394 -123q-149 0 -218.5 87t-37.5 239q19 89 50.5 151.5t83.5 106.5t113 72.5t155 56.5q15 4 50 13
t64 17.5t54 18.5q99 44 117 121q11 55 -13.5 87t-77.5 32q-135 0 -163 -177h-326q58 392 534 392q77 0 148 -23t115 -67q131 90 282 90q206 0 297.5 -103.5t48.5 -308.5z" />
    <glyph glyph-name="ccedilla" unicode="&#xe7;" 
d="M305 -188l129 155q-333 27 -266 352l100 467q44 212 165.5 303t320.5 91q241 -3 319.5 -112.5t13.5 -346.5h-307l2 20q1 21 8.5 65.5t8.5 65.5q-5 37 -21.5 54.5t-52.5 17.5q-58 0 -86.5 -37.5t-40.5 -101.5l-102 -473q-12 -62 3.5 -97.5t73.5 -35.5q25 0 45.5 9.5
t35.5 29t25.5 38t19 49.5t12.5 49t10 50t8 41h315q-13 -62 -37.5 -146.5t-45.5 -125.5q-53 -102 -146.5 -157.5t-208.5 -66.5q-6 0 -23 -1t-30 -1l-82 -94l2 -4q25 10 78 10q79 -3 127.5 -43.5t32.5 -114.5q-14 -62 -65 -108t-112 -67t-122 -21q-70 0 -125.5 14t-132.5 43
l61 94q15 -4 51.5 -16.5t63 -18.5t53.5 -6q43 0 80 20t43 56q6 33 -15.5 51.5t-52.5 20.5q-37 3 -90 -21z" />
    <glyph glyph-name="egrave" unicode="&#xe8;" 
d="M559 735h225l25 113q5 24 1 49t-26 46.5t-61 21.5q-117 0 -148 -154zM1065 520h-551l-43 -201q-10 -51 7.5 -84t68.5 -36q25 -1 44.5 3.5t34 17t24 24t18 34t12.5 36.5t11.5 42.5t10.5 40.5h324q-33 -217 -166 -324t-352 -110q-91 -1 -163.5 18.5t-125.5 60t-73.5 111.5
t-0.5 166l101 467q81 391 520 394q71 1 131.5 -10t112.5 -35t83.5 -62.5t45 -94.5t-3.5 -130zM434 1602h426l141 -304h-280z" />
    <glyph glyph-name="eacute" unicode="&#xe9;" 
d="M559 735h225l25 113q5 24 1 49t-26 46.5t-61 21.5q-117 0 -148 -154zM1065 520h-551l-43 -201q-10 -51 7.5 -84t68.5 -36q25 -1 44.5 3.5t34 17t24 24t18 34t12.5 36.5t11.5 42.5t10.5 40.5h324q-33 -217 -166 -324t-352 -110q-91 -1 -163.5 18.5t-125.5 60t-73.5 111.5
t-0.5 166l101 467q81 391 520 394q71 1 131.5 -10t112.5 -35t83.5 -62.5t45 -94.5t-3.5 -130zM846 1602h426l-414 -304h-280z" />
    <glyph glyph-name="ecircumflex" unicode="&#xea;" 
d="M559 735h225l25 113q5 24 1 49t-26 46.5t-61 21.5q-117 0 -148 -154zM1065 520h-551l-43 -201q-10 -51 7.5 -84t68.5 -36q25 -1 44.5 3.5t34 17t24 24t18 34t12.5 36.5t11.5 42.5t10.5 40.5h324q-33 -217 -166 -324t-352 -110q-91 -1 -163.5 18.5t-125.5 60t-73.5 111.5
t-0.5 166l101 467q81 391 520 394q71 1 131.5 -10t112.5 -35t83.5 -62.5t45 -94.5t-3.5 -130zM367 1257l309 304h338l184 -304h-303l-82 154l-145 -154h-301z" />
    <glyph glyph-name="edieresis" unicode="&#xeb;" 
d="M559 735h225l25 113q5 24 1 49t-26 46.5t-61 21.5q-117 0 -148 -154zM1065 520h-551l-43 -201q-10 -51 7.5 -84t68.5 -36q25 -1 44.5 3.5t34 17t24 24t18 34t12.5 36.5t11.5 42.5t10.5 40.5h324q-33 -217 -166 -324t-352 -110q-91 -1 -163.5 18.5t-125.5 60t-73.5 111.5
t-0.5 166l101 467q81 391 520 394q71 1 131.5 -10t112.5 -35t83.5 -62.5t45 -94.5t-3.5 -130zM467 1577h324l-58 -266h-323zM852 1311l57 266h324l-57 -266h-324z" />
    <glyph glyph-name="igrave" unicode="&#xec;" horiz-adv-x="569" 
d="M449 0h-326l244 1147h325zM207 1602h426l141 -304h-280z" />
    <glyph glyph-name="iacute" unicode="&#xed;" horiz-adv-x="569" 
d="M449 0h-326l244 1147h325zM618 1602h426l-413 -304h-281z" />
    <glyph glyph-name="icircumflex" unicode="&#xee;" horiz-adv-x="569" 
d="M449 0h-326l244 1147h325zM117 1257l309 304h338l184 -304h-303l-82 154l-145 -154h-301z" />
    <glyph glyph-name="idieresis" unicode="&#xef;" horiz-adv-x="569" 
d="M449 0h-326l244 1147h325zM240 1577h323l-57 -266h-324zM625 1311l57 266h324l-58 -266h-323z" />
    <glyph glyph-name="eth" unicode="&#xf0;" 
d="M379 1335l186 111l-102 127l237 145l107 -133l176 105l66 -103l-166 -98q45 -65 65.5 -96.5t56.5 -91.5t51 -98.5t34 -98.5t22.5 -113t0.5 -121t-19 -141l-88 -410q-20 -95 -66 -165t-113 -111t-147 -60.5t-176 -19.5q-72 0 -131 12t-108.5 38t-78 67.5t-39.5 101
t7 137.5l88 410q18 85 52 153.5t76 112.5t92.5 73.5t99 41.5t97.5 12q102 0 146 -47l4 4q-71 141 -168 271l-199 -117zM571 754l-96 -455q-21 -100 80 -100q100 0 121 100l96 455q29 133 -72 133q-100 0 -129 -133z" />
    <glyph glyph-name="ntilde" unicode="&#xf1;" 
d="M344 1147h303l-31 -143h5q39 70 115 123t149 53q122 0 193.5 -64t47.5 -176l-200 -940h-326l174 819q7 44 -7.5 70.5t-57.5 23.5q-43 -2 -71.5 -26t-37.5 -68l-174 -819h-326zM928 1270q-74 0 -162 39q-88 37 -115 37q-35 0 -65 -26.5t-43 -62.5h-162q54 131 113 197
q85 92 198 92q64 0 162 -39q6 -2 25.5 -11.5t27 -12.5t22 -8t25 -7t21.5 -2q31 0 63 23.5t39 52.5h164q-38 -119 -118.5 -195.5t-194.5 -76.5z" />
    <glyph glyph-name="ograve" unicode="&#xf2;" 
d="M154 319l100 467q81 394 508 394q425 0 344 -394l-100 -467q-52 -188 -179.5 -272t-322.5 -84q-72 0 -131 12t-108.5 38t-78 67.5t-39.5 101t7 137.5zM584 811l-109 -512q-6 -51 12 -75.5t68 -24.5q49 0 77 24.5t44 75.5l108 512q29 133 -71 133t-129 -133zM434 1602h426
l141 -304h-280z" />
    <glyph glyph-name="oacute" unicode="&#xf3;" 
d="M154 319l100 467q81 394 508 394q425 0 344 -394l-100 -467q-52 -188 -179.5 -272t-322.5 -84q-72 0 -131 12t-108.5 38t-78 67.5t-39.5 101t7 137.5zM584 811l-109 -512q-6 -51 12 -75.5t68 -24.5q49 0 77 24.5t44 75.5l108 512q29 133 -71 133t-129 -133zM846 1602h426
l-414 -304h-280z" />
    <glyph glyph-name="ocircumflex" unicode="&#xf4;" 
d="M154 319l100 467q81 394 508 394q425 0 344 -394l-100 -467q-52 -188 -179.5 -272t-322.5 -84q-72 0 -131 12t-108.5 38t-78 67.5t-39.5 101t7 137.5zM584 811l-109 -512q-6 -51 12 -75.5t68 -24.5q49 0 77 24.5t44 75.5l108 512q29 133 -71 133t-129 -133zM367 1257
l309 304h338l184 -304h-303l-82 154l-145 -154h-301z" />
    <glyph glyph-name="otilde" unicode="&#xf5;" 
d="M154 319l100 467q81 394 508 394q425 0 344 -394l-100 -467q-52 -188 -179.5 -272t-322.5 -84q-72 0 -131 12t-108.5 38t-78 67.5t-39.5 101t7 137.5zM584 811l-109 -512q-6 -51 12 -75.5t68 -24.5q49 0 77 24.5t44 75.5l108 512q29 133 -71 133t-129 -133zM928 1270
q-74 0 -162 39q-88 37 -115 37q-35 0 -65 -26.5t-43 -62.5h-162q54 131 113 197q85 92 198 92q64 0 162 -39q6 -2 25.5 -11.5t27 -12.5t22 -8t25 -7t21.5 -2q31 0 63 23.5t39 52.5h164q-38 -119 -118.5 -195.5t-194.5 -76.5z" />
    <glyph glyph-name="odieresis" unicode="&#xf6;" 
d="M154 319l100 467q81 394 508 394q425 0 344 -394l-100 -467q-52 -188 -179.5 -272t-322.5 -84q-72 0 -131 12t-108.5 38t-78 67.5t-39.5 101t7 137.5zM584 811l-109 -512q-6 -51 12 -75.5t68 -24.5q49 0 77 24.5t44 75.5l108 512q29 133 -71 133t-129 -133zM467 1577h324
l-58 -266h-323zM852 1311l57 266h324l-57 -266h-324z" />
    <glyph glyph-name="divide" unicode="&#xf7;" 
d="M137 393l49 236h920l-49 -236h-920zM565 1008h326l-51 -236h-326zM403 250h326l-51 -236h-326z" />
    <glyph glyph-name="oslash" unicode="&#xf8;" 
d="M524 510l258 289q6 37 7.5 69.5t-17.5 54t-59 21.5q-100 0 -129 -133l-64 -301h4zM752 676l-260 -297l-17 -80q-6 -51 12 -75.5t68 -24.5q49 0 77 24.5t44 75.5l80 377h-4zM1014 1120l145 176l127 -94l-180 -205q25 -78 0 -211l-100 -467q-52 -188 -179.5 -272
t-322.5 -84q-178 0 -266 68l-152 -183l-121 97l187 209q-15 75 2 165l100 467q81 394 508 394q169 0 252 -60z" />
    <glyph glyph-name="ugrave" unicode="&#xf9;" 
d="M920 0h-304l31 141h-4q-39 -70 -116 -124t-150 -54q-141 0 -203 62.5t-37 179.5l201 942h326l-175 -821q-15 -102 60 -97q43 2 74.5 27.5t40.5 69.5l174 821h325zM434 1602h426l141 -304h-280z" />
    <glyph glyph-name="uacute" unicode="&#xfa;" 
d="M920 0h-304l31 141h-4q-39 -70 -116 -124t-150 -54q-141 0 -203 62.5t-37 179.5l201 942h326l-175 -821q-15 -102 60 -97q43 2 74.5 27.5t40.5 69.5l174 821h325zM846 1602h426l-414 -304h-280z" />
    <glyph glyph-name="ucircumflex" unicode="&#xfb;" 
d="M920 0h-304l31 141h-4q-39 -70 -116 -124t-150 -54q-141 0 -203 62.5t-37 179.5l201 942h326l-175 -821q-15 -102 60 -97q43 2 74.5 27.5t40.5 69.5l174 821h325zM371 1278l309 303h338l184 -303h-303l-80 154l-147 -154h-301z" />
    <glyph glyph-name="udieresis" unicode="&#xfc;" 
d="M920 0h-304l31 141h-4q-39 -70 -116 -124t-150 -54q-141 0 -203 62.5t-37 179.5l201 942h326l-175 -821q-15 -102 60 -97q43 2 74.5 27.5t40.5 69.5l174 821h325zM467 1577h324l-58 -266h-323zM852 1311l57 266h324l-57 -266h-324z" />
    <glyph glyph-name="yacute" unicode="&#xfd;" horiz-adv-x="909" 
d="M584 1147l-47 -741h4l270 741h319l-415 -981q-19 -40 -45.5 -100t-43 -96t-41 -85t-45 -78.5t-49.5 -64.5t-60.5 -55.5t-71.5 -39t-89.5 -26.5t-107.5 -8q-32 0 -73 5t-54 5l51 242q45 -5 61 -8q29 -5 66.5 10.5t44.5 46.5q10 43 4 195l-6 1038h328zM788 1602h426
l-413 -304h-281z" />
    <glyph glyph-name="thorn" unicode="&#xfe;" 
d="M702 428l64 297q4 21 5.5 28.5t5 29t3.5 32.5v29t-5 28t-12 21t-20 15.5t-30 4.5q-61 0 -95.5 -54t-54.5 -148l-57 -271q-13 -54 -14.5 -99t15 -78.5t54.5 -33.5q29 0 52 14.5t36.5 32t25 49.5t16 51t11.5 52zM4 -387l408 1923h325l-106 -504h4q45 68 117.5 108t156.5 40
q62 0 106 -24t67 -62.5t32.5 -91.5t6.5 -106t-15 -110l-86 -397q-13 -64 -31.5 -119.5t-50 -114t-70.5 -99.5t-96.5 -67t-126.5 -26q-53 0 -112 35t-95 111h-4l-104 -496h-326z" />
    <glyph glyph-name="ydieresis" unicode="&#xff;" horiz-adv-x="909" 
d="M584 1147l-47 -741h4l270 741h319l-415 -981q-19 -40 -45.5 -100t-43 -96t-41 -85t-45 -78.5t-49.5 -64.5t-60.5 -55.5t-71.5 -39t-89.5 -26.5t-107.5 -8q-32 0 -73 5t-54 5l51 242q45 -5 61 -8q29 -5 66.5 10.5t44.5 46.5q10 43 4 195l-6 1038h328zM410 1577h323
l-57 -266h-324zM795 1311l57 266h324l-58 -266h-323z" />
    <glyph glyph-name="dotlessi" unicode="&#x131;" horiz-adv-x="569" 
d="M449 0h-326l244 1147h325z" />
    <glyph glyph-name="Lslash" unicode="&#x141;" horiz-adv-x="909" 
d="M762 1536l-96 -457l143 88l-57 -270l-144 -88l-106 -502h440l-65 -307h-801l125 590l-140 -86l58 270l139 86l143 676h361z" />
    <glyph glyph-name="lslash" unicode="&#x142;" horiz-adv-x="569" 
d="M297 840l147 696h326l-108 -516l149 76l-47 -219l-150 -76l-170 -801h-325l131 621l-148 -76l45 219z" />
    <glyph glyph-name="OE" unicode="&#x152;" horiz-adv-x="1593" 
d="M793 457l135 633q5 25 7.5 37t6 36t2.5 37t-5 31.5t-13 28.5t-24.5 19t-37.5 11q-44 5 -78.5 -9t-55.5 -36t-38 -59.5t-24.5 -64.5t-16.5 -68l-125 -592q-23 -104 -20 -140q5 -79 98 -79q40 0 70.5 12.5t48.5 29t32.5 49t21.5 57t16 67.5zM719 -2l29 133h-5
q-60 -82 -141 -125t-174 -43q-68 0 -119 18t-82.5 48t-50 75.5t-25 92.5t-3.5 107t11 112t21 114l103 480q118 563 479 563q87 0 156.5 -41.5t101.5 -122.5h4l27 127h782l-64 -307h-464l-62 -285h451l-66 -307h-450l-70 -332h479l-65 -307h-803z" />
    <glyph glyph-name="oe" unicode="&#x153;" horiz-adv-x="1478" 
d="M1085 719h209l17 82q7 35 9.5 59t-0.5 49.5t-18 39.5t-42 16q-42 5 -79.5 -19t-52.5 -65q-8 -18 -15 -40.5t-10.5 -37.5t-9.5 -44.5t-8 -39.5zM1645 834l-72 -330h-535l-20 -98q-2 -8 -6.5 -30.5l-6.5 -32.5t-5 -30.5t-1.5 -30.5t3.5 -26t9 -24t17.5 -17t27 -12.5
t38.5 -3.5q16 0 29.5 4.5t25 14.5t20 18.5t16.5 26t13 27t11 30t8 27t7 27.5l5 21h317q-43 -217 -169 -324.5t-349 -107.5q-78 0 -141.5 30.5t-98.5 86.5q-65 -59 -149 -88t-170 -29q-116 0 -190 30t-106 85.5t-36.5 135.5t19.5 181l75 355q21 103 57.5 179.5t94 134
t141.5 87t195 29.5q91 0 166 -30.5t116 -90.5q79 67 150 94t166 27q173 0 265 -91.5t63 -254.5zM670 301l114 537q7 106 -84 106q-50 0 -83 -29.5t-42 -76.5l-114 -537q-11 -50 10 -76t72 -26q96 0 127 102z" />
    <glyph glyph-name="Scaron" unicode="&#x160;" 
d="M141 514h334l-22 -108q-34 -166 108 -166q59 0 100 44.5t54 108.5q4 21 5 40t-4 35.5t-9.5 30t-17 27.5t-20 23t-25 22.5t-26 19.5t-28.5 19.5t-27 18.5q-85 56 -139.5 101.5t-89.5 98.5q-78 125 -39 308q45 213 188.5 324.5t356.5 111.5q229 0 320.5 -137.5t31.5 -360.5
h-332l4.5 27t4.5 30t3.5 28.5t2 29t-1.5 26t-5 25.5t-10.5 20.5t-16 17.5t-23 11t-30.5 6q-109 9 -147 -102q-9 -37 -11 -61.5t10.5 -48.5t27.5 -41t41 -37q39 -28 106.5 -73t110.5 -77.5t73 -67.5q54 -62 68 -142.5t-12 -223.5q-47 -222 -192 -340.5t-369 -118.5
q-96 0 -171 21t-120.5 57t-73.5 85t-31 105.5t8 118.5zM895 1796l145 154h303l-311 -303h-338l-182 303h301z" />
    <glyph glyph-name="scaron" unicode="&#x161;" horiz-adv-x="909" 
d="M1040 807h-305l3.5 28t3.5 30t0.5 24.5t-3.5 25.5q-10 50 -80 50q-50 0 -84.5 -24t-44.5 -73q-8 -41 13 -66.5t63 -49.5q24 -12 63.5 -30.5t64 -30.5t59 -30.5t56 -35.5t46 -39.5t37.5 -48t22.5 -57t9 -70t-9.5 -82.5q-20 -93 -69 -164.5t-118 -114.5t-151 -64.5
t-174 -21.5q-205 0 -299.5 94.5t-44.5 292.5h312q-18 -69 -4 -117q17 -55 83 -55q54 0 92 27.5t50 81.5q10 58 -25 88q-33 20 -121.5 61t-149 81.5t-95.5 92.5q-61 94 -35 215q24 119 101 201t177.5 118t218.5 36q91 0 162.5 -22.5t120.5 -68.5t63.5 -116.5t-8.5 -165.5z
M735 1407l146 154h303l-312 -304h-337l-183 304h301z" />
    <glyph glyph-name="Ydieresis" unicode="&#x178;" horiz-adv-x="1138" 
d="M713 1536l73 -502h5l290 502h361l-559 -891l-138 -645h-360l137 645l-174 891h365zM606 1966h324l-58 -266h-323zM991 1700l58 266h323l-57 -266h-324z" />
    <glyph glyph-name="Zcaron" unicode="&#x17d;" horiz-adv-x="909" 
d="M315 1229l64 307h815l-59 -287l-648 -942h467l-65 -307h-869l58 274l659 955h-422zM838 1796l145 154h303l-311 -303h-338l-182 303h301z" />
    <glyph glyph-name="zcaron" unicode="&#x17e;" horiz-adv-x="796" 
d="M240 891l55 256h717l-51 -238l-510 -653h372l-55 -256h-739l49 227l512 664h-350zM698 1407l146 154h303l-311 -304h-338l-183 304h301z" />
    <glyph glyph-name="florin" unicode="&#x192;" 
d="M940 1006h211l-47 -228h-244q-180 -490 -235.5 -628t-137.5 -289q-78 -131 -166.5 -193.5t-218.5 -62.5q-104 0 -170 43l101 268q52 -59 125 -20q20 17 25 23q37 49 197 475q60 156 144 384h-211l47 228h254q49 146 104 250.5t105.5 163t112.5 91.5t113.5 42.5t119.5 9.5
q26 0 51.5 -4.5t61 -13.5t43.5 -11l-111 -260q-16 7 -26.5 10.5t-27 7t-32 2t-30.5 -7.5q-32 -11 -59 -48t-41 -74.5t-31.5 -88t-26.5 -69.5z" />
    <glyph glyph-name="circumflex" unicode="&#x2c6;" horiz-adv-x="681" 
d="M203 1298l309 304h338l184 -304h-303l-80 154l-147 -154h-301z" />
    <glyph glyph-name="caron" unicode="&#x2c7;" horiz-adv-x="681" 
d="M649 1448l146 154h303l-312 -304h-337l-183 304h301z" />
    <glyph glyph-name="uni02C9" unicode="&#x2c9;" horiz-adv-x="681" 
d="M1016 1358h-770l39 184h770z" />
    <glyph glyph-name="breve" unicode="&#x2d8;" horiz-adv-x="681" 
d="M313 1612h162q-4 -40 12 -67t47 -39t61.5 -16.5t70.5 -4.5q86 0 140 25.5t91 101.5h158q-18 -77 -62 -138t-104 -98.5t-129.5 -57.5t-143.5 -20q-349 0 -303 314z" />
    <glyph glyph-name="dotaccent" unicode="&#x2d9;" horiz-adv-x="681" 
d="M514 1577h326l-58 -266h-325z" />
    <glyph glyph-name="ring" unicode="&#x2da;" horiz-adv-x="681" 
d="M618 1300q-95 0 -148.5 68.5t-33.5 163.5t103.5 162t177.5 67t147 -67.5t33 -161.5t-102 -163t-177 -69zM690 1638q-42 0 -81 -32t-48 -74q-9 -43 16 -75t68 -32q42 0 81 32.5t48 74.5q9 41 -17 73.5t-67 32.5z" />
    <glyph glyph-name="ogonek" unicode="&#x2db;" horiz-adv-x="681" 
d="M524 -213l-37 -176q-102 -31 -190 -31q-101 0 -158.5 52t-36.5 151q8 35 30 67t57.5 61t61.5 46t68 43h170v-4q-130 -59 -143 -133q-9 -39 13.5 -70t60.5 -31q11 0 21 1.5t21.5 4.5t19 5t22 7t20.5 7z" />
    <glyph glyph-name="tilde" unicode="&#x2dc;" horiz-adv-x="681" 
d="M764 1311q-74 0 -162 39q-86 36 -115 36q-35 0 -65 -26t-43 -62h-162q116 289 313 289q64 0 162 -39q8 -4 25.5 -12t26 -11.5t22 -8.5t24 -7t21.5 -2q31 0 63 23.5t39 52.5h164q-38 -119 -118.5 -195.5t-194.5 -76.5z" />
    <glyph glyph-name="hungarumlaut" unicode="&#x2dd;" horiz-adv-x="681" 
d="M100 1298l267 304h430l-418 -304h-279zM711 1298l266 304h430l-418 -304h-278z" />
    <glyph glyph-name="uni03A9" unicode="&#x3a9;" horiz-adv-x="1261" 
d="M340 248v6q-41 72 -65.5 155.5t-33 201t20.5 241.5q29 136 95.5 260.5t157.5 219.5t208.5 151.5t241.5 56.5q90 0 162.5 -29.5t118.5 -81t77 -117t42.5 -141t9.5 -150.5t-17 -147q-38 -182 -133.5 -346.5t-204.5 -273.5v-6h233l-53 -248h-493l38 180q84 60 167.5 218
t136.5 403q22 101 25 186.5t-12.5 151t-55.5 102.5t-101 37q-121 0 -218 -135t-144 -355q-33 -155 -35 -284.5t19.5 -208t60.5 -115.5l-39 -180h-496l53 248h234z" />
    <glyph glyph-name="uni03BC" unicode="&#x3bc;" 
d="M920 0h-304l31 141h-4q-34 -62 -99 -109.5t-128 -47.5l-78 -371h-326l326 1534h326l-175 -821q-15 -102 60 -97q43 2 74.5 27.5t40.5 69.5l174 821h325z" />
    <glyph glyph-name="pi" unicode="&#x3c0;" horiz-adv-x="1150" 
d="M1298 881h-122l-123 -582q-39 -177 -39 -299h-279q-17 73 31 295l123 586h-217q-44 -181 -130 -441t-171 -440h-279q90 202 176 459t121 422q-100 0 -166 -17l13 205q45 34 134.5 55t207.5 21h796z" />
    <glyph glyph-name="endash" unicode="&#x2013;" 
d="M1135 518h-1024l49 236h1024z" />
    <glyph glyph-name="emdash" unicode="&#x2014;" horiz-adv-x="2048" 
d="M2159 518h-2048l49 236h2048z" />
    <glyph glyph-name="quoteleft" unicode="&#x2018;" horiz-adv-x="569" 
d="M784 1573l-24 -117q-87 -3 -143 -56t-70 -140h172l-70 -328h-323l69 330q60 288 389 311z" />
    <glyph glyph-name="quoteright" unicode="&#x2019;" horiz-adv-x="569" 
d="M309 895l25 117q87 3 144 56t69 140h-172l69 328h324l-70 -330q-60 -288 -389 -311z" />
    <glyph glyph-name="quotesinglbase" unicode="&#x201a;" horiz-adv-x="569" 
d="M57 -311l25 116q87 3 143 56t70 141h-172l70 328h323l-70 -330q-60 -288 -389 -311z" />
    <glyph glyph-name="quotedblleft" unicode="&#x201c;" 
d="M766 1573l-25 -117q-87 -3 -143 -56t-70 -140h172l-69 -328h-324l70 330q60 288 389 311zM1257 1573l-24 -117q-87 -3 -143 -56t-70 -140h172l-70 -328h-323l69 330q60 288 389 311z" />
    <glyph glyph-name="quotedblright" unicode="&#x201d;" 
d="M782 895l25 117q87 3 144 56t69 140h-172l70 328h323l-70 -330q-60 -288 -389 -311zM291 895l24 117q87 3 144 56t69 140h-172l70 328h324l-70 -330q-60 -288 -389 -311z" />
    <glyph glyph-name="quotedblbase" unicode="&#x201e;" 
d="M532 -311l25 116q87 3 143 56t70 141h-172l70 328h323l-69 -330q-60 -288 -390 -311zM39 -311l24 116q87 3 143 56t70 141h-172l70 328h324l-70 -330q-60 -288 -389 -311z" />
    <glyph glyph-name="dagger" unicode="&#x2020;" 
d="M516 791h-289l60 276h288l99 469h325l-98 -469h293l-59 -276h-293l-244 -1145h-326z" />
    <glyph glyph-name="daggerdbl" unicode="&#x2021;" 
d="M276 -350l91 428h-295l59 276h295l96 455h-295l60 276h295l94 451h325l-94 -451h291l-59 -276h-291l-96 -455h295l-60 -276h-295l-90 -428h-326z" />
    <glyph glyph-name="bullet" unicode="&#x2022;" horiz-adv-x="860" 
d="M979 768q-34 -160 -171.5 -273.5t-297.5 -113.5q-159 0 -247 113.5t-54 273.5q34 159 169 271t294 112q160 0 250.5 -112.5t56.5 -270.5z" />
    <glyph glyph-name="ellipsis" unicode="&#x2026;" horiz-adv-x="2048" 
d="M514 0h-346l74 350h346zM1196 0h-346l74 350h346zM1880 0h-346l74 350h346z" />
    <glyph glyph-name="perthousand" unicode="&#x2030;" horiz-adv-x="2275" 
d="M651 1540q180 0 235 -91t13 -290q-15 -71 -32.5 -123t-48.5 -104t-72.5 -84t-106 -52t-147.5 -20q-96 0 -155.5 26.5t-84.5 76t-26.5 120.5t18.5 160q80 381 407 381zM610 1354q-17 1 -31 -4t-24 -13t-19 -23.5t-14 -28t-10 -32.5t-7.5 -32t-6 -32t-4.5 -26
q-3 -13 -9.5 -39.5t-9.5 -41t-6 -36.5t-0.5 -34t8 -25t19.5 -18.5t34 -5.5q19 0 35 7t27.5 22.5t20 28.5t15.5 37.5t10.5 36.5t8.5 38t6 30q2 9 7 30t7.5 36t5.5 35.5t0.5 34.5t-8.5 27.5t-20 20.5t-35 7zM1346 756q180 0 235.5 -91t13.5 -290q-15 -71 -32.5 -123t-49 -104
t-73.5 -84t-106.5 -52t-147.5 -20q-96 0 -155.5 26.5t-84 76t-26 120.5t19.5 160q80 381 406 381zM1307 569q-22 2 -40 -8t-28.5 -22.5t-20.5 -39t-13.5 -40.5t-9.5 -44.5t-7 -35.5q-3 -14 -9 -39.5t-9 -41t-6 -37t-0.5 -34t8.5 -25t19.5 -18.5t33.5 -6q30 0 53 19
t35.5 50.5t19.5 59.5t13 59q0 3 0.5 4.5t1 4t0.5 4.5l7.5 30t8.5 35.5t6 35t0.5 35t-8.5 27.5t-20 20.5t-35 6.5zM2109 756q180 0 236 -91.5t14 -289.5q-15 -71 -32.5 -123t-49 -104t-73.5 -84t-106.5 -52t-147.5 -20q-96 0 -155.5 26.5t-84 76t-26 120.5t19.5 160
q80 381 405 381zM2071 569q-22 2 -40 -8t-28.5 -22.5t-20.5 -39t-13.5 -40.5t-9.5 -44.5t-7 -35.5q-3 -14 -9 -39.5t-9 -41t-6 -37t-0.5 -34t8.5 -25t19.5 -18.5t33.5 -6q13 0 25.5 4.5t21.5 10t17.5 17.5t14.5 20.5t12 25t9 25.5t7.5 27.5t6 25t5 25t3.5 20.5l7.5 30
t8.5 36t6 35t1 34.5t-8 27.5t-20 20.5t-35 6.5zM1511 1536l-1028 -1573h-168l1026 1573h170z" />
    <glyph glyph-name="guilsinglleft" unicode="&#x2039;" horiz-adv-x="569" 
d="M532 252l-319 237l63 299l422 246l-57 -268l-235 -129l184 -119z" />
    <glyph glyph-name="guilsinglright" unicode="&#x203a;" horiz-adv-x="569" 
d="M143 252l58 266l233 119l-182 129l57 268l320 -246l-64 -299z" />
    <glyph glyph-name="fraction" unicode="&#x2044;" horiz-adv-x="342" 
d="M-166 0h-178l1165 1536h172z" />
    <glyph glyph-name="Euro" unicode="&#x20ac;" 
d="M1024 391l-72 -338q-136 -92 -301 -92q-97 0 -171 32.5t-118 88.5t-72 131t-32.5 161t0.5 179h-131l63 127h84l13 59q15 70 18 82h-121l62 127h96q67 196 171.5 330.5t222.5 196t247 61.5q233 0 332 -135l-146 -297q-47 156 -202 156q-48 0 -92.5 -26.5t-79.5 -72.5
t-62 -98.5t-49 -114.5h406l-62 -127h-383q-14 -56 -24 -106l-7 -35h344l-63 -127h-297q-16 -313 150 -313q23 0 38.5 1t48.5 9t60 22.5t62.5 45t66.5 73.5z" />
    <glyph glyph-name="afii61289" unicode="&#x2113;" horiz-adv-x="972" 
d="M922 387l84 -121q-198 -297 -457 -297q-74 0 -130.5 19t-89 52t-52 77.5t-20.5 95t5 104.5l6 27q-14 -10 -53 -39.5t-61 -44.5l-31 158q19 15 51.5 39.5t51 38.5t43 34t44.5 39l117 551q55 257 188 397t289 140q89 0 140 -51.5t58.5 -138.5t-15.5 -201
q-66 -323 -498 -721l-29 -127q-20 -101 7.5 -156t93.5 -55q114 0 258 180zM705 1083l-56 -260q109 117 186 243t99 222q17 74 4.5 112t-61.5 38q-95 0 -172 -355z" />
    <glyph glyph-name="trademark" unicode="&#x2122;" horiz-adv-x="1761" 
d="M2083 1536l-174 -827h-191l137 647h-4l-366 -647h-127l-92 647h-4l-138 -647h-190l174 827h301l76 -510h4l293 510h301zM1018 1536l-37 -180h-244l-137 -647h-209l137 647h-233l37 180h686z" />
    <glyph glyph-name="Omega" unicode="&#x2126;" horiz-adv-x="1261" 
d="M340 248v6q-41 72 -65.5 155.5t-33 201t20.5 241.5q29 136 95.5 260.5t157.5 219.5t208.5 151.5t241.5 56.5q90 0 162.5 -29.5t118.5 -81t77 -117t42.5 -141t9.5 -150.5t-17 -147q-38 -182 -133.5 -346.5t-204.5 -273.5v-6h233l-53 -248h-493l38 180q84 60 167.5 218
t136.5 403q22 101 25 186.5t-12.5 151t-55.5 102.5t-101 37q-121 0 -218 -135t-144 -355q-33 -155 -35 -284.5t19.5 -208t60.5 -115.5l-39 -180h-496l53 248h234z" />
    <glyph glyph-name="estimated" unicode="&#x212e;" horiz-adv-x="2220" 
d="M2146 727h-1413q-12 0 -12 -8v-428q0 -28 18 -49q106 -109 244 -171.5t291 -62.5q166 0 311.5 69t251.5 191h127q-120 -140 -302 -221.5t-390 -81.5q-177 0 -338.5 62t-278.5 167t-186.5 250.5t-69.5 305.5t69.5 305.5t186.5 250.5t278.5 167.5t338.5 62.5q179 0 341 -62
t278.5 -167.5t185.5 -251t69 -305.5v-23zM1827 784v430q0 29 -23 52q-106 104 -242.5 163.5t-287.5 59.5t-289 -62t-244 -170q-20 -20 -20 -53v-420q0 -14 12 -14h1084q10 0 10 14z" />
    <glyph glyph-name="partialdiff" unicode="&#x2202;" horiz-adv-x="1107" 
d="M492 1352l-23 239q170 119 375 119q105 0 188 -49t138 -149.5t64 -255t-34 -365.5q-92 -435 -284.5 -675.5t-448.5 -240.5q-77 0 -136.5 30t-94 80.5t-55 116.5t-18.5 138.5t15 146.5q28 134 85.5 245.5t129.5 183.5t154.5 111.5t165.5 39.5q87 0 142 -42.5t71 -88.5h2
l14 63q14 64 15.5 129t-11 124t-36.5 104.5t-65.5 72.5t-94.5 27q-130 0 -258 -104zM549 233h2q58 0 120 73.5t106.5 172t74.5 203.5q-4 50 -38 93.5t-99 43.5q-82 0 -153 -105t-101 -245q-22 -100 1 -168t87 -68z" />
    <glyph glyph-name="Delta" unicode="&#x2206;" horiz-adv-x="1226" 
d="M49 0l37 176l694 1368h342l90 -1362l-38 -182h-1125zM395 246h535l-49 532q0 62 -8 207.5t-7 192.5h-4q-16 -45 -82 -177t-92 -192z" />
    <glyph glyph-name="product" unicode="&#x220f;" horiz-adv-x="1710" 
d="M1657 1231h-176v-1440h-297v1440h-336v-1440h-297v1440h-176v287h1282v-287z" />
    <glyph glyph-name="summation" unicode="&#x2211;" horiz-adv-x="1363" 
d="M1331 -211h-958v209l424 664l-416 634v222h922v-261h-537v-8l360 -526l-411 -631v-6h616v-297z" />
    <glyph glyph-name="minus" unicode="&#x2212;" 
d="M137 393l49 236h920l-49 -236h-920z" />
    <glyph glyph-name="uni2215" unicode="&#x2215;" horiz-adv-x="342" 
d="M-166 0h-178l1165 1536h172z" />
    <glyph glyph-name="uni2219" unicode="&#x2219;" horiz-adv-x="681" 
d="M586 336h-346l73 350h346z" />
    <glyph glyph-name="radical" unicode="&#x221a;" horiz-adv-x="1474" 
d="M1487 1835l-418 -2118h-233l-258 920l-142 -57l-45 178l365 147l157 -598q7 -47 22 -123.5t17 -91.5l2 -2q19 157 33 238l301 1507h199z" />
    <glyph glyph-name="infinity" unicode="&#x221e;" horiz-adv-x="1773" 
d="M1681 625v-2q0 -166 -99 -266.5t-232 -100.5q-97 0 -180.5 46.5t-174.5 176.5q-56 -72 -105.5 -118t-117 -75.5t-145.5 -29.5q-132 0 -229 100t-97 256q0 160 97 261.5t245 101.5q108 0 191 -53.5t165 -163.5q4 5 12 14q31 36 48.5 55.5t54.5 52t69 50t79.5 31.5t97.5 14
q136 -2 228.5 -98t92.5 -252zM647 420h2q71 0 128.5 47t127.5 137q-74 106 -106 139q-69 70 -156 70q-84 0 -131 -56t-47 -147q0 -78 53.5 -134t128.5 -56zM1343 813h-2q-24 0 -47 -5.5t-46 -20.5t-38 -25t-38.5 -35.5t-31.5 -34t-32.5 -38.5t-26.5 -33q88 -118 143 -159.5
t130 -41.5q72 0 117 61t45 129q0 87 -47.5 145t-125.5 58z" />
    <glyph glyph-name="integral" unicode="&#x222b;" horiz-adv-x="1169" 
d="M1100 1866l-27 -221q-36 16 -63 16q-60 0 -95 -55q-45 -67 -45 -357q0 -174 14.5 -494t14.5 -530q0 -300 -63 -438q-41 -90 -118.5 -131t-168.5 -41q-98 0 -158 33l35 227q45 -20 78 -20q53 0 78 39q41 66 41 321q0 213 -14.5 543t-14.5 518q0 196 28.5 311.5t94.5 192.5
q43 51 113 78.5t143 27.5q77 0 127 -20z" />
    <glyph glyph-name="approxequal" unicode="&#x2248;" horiz-adv-x="1239" 
d="M1069 977l102 -88q-43 -100 -114 -163.5t-152 -63.5q-53 0 -97 17t-108 60q-38 28 -56 39.5t-45.5 22t-55.5 10.5q-17 0 -32.5 -3.5t-29.5 -14t-23.5 -17.5t-23 -25t-18.5 -25.5t-19.5 -31t-17.5 -28.5l-103 90q42 97 116.5 159t164.5 62q19 0 37 -2t36 -8t29.5 -9.5
t29.5 -13.5t23 -12.5t24 -14.5l18 -12q12 -7 44 -27.5t43.5 -26.5t31 -13t36.5 -7q27 0 48.5 10t42.5 34.5t33.5 43.5t35.5 58zM1069 584l102 -90q-43 -100 -113.5 -163t-152.5 -63q-51 0 -95 17.5t-110 60.5q-40 28 -57.5 39t-45.5 22t-56 11q-13 0 -25.5 -2t-23.5 -8.5
t-19.5 -11.5t-19 -16.5t-16 -17.5t-16 -22t-14 -21.5t-14.5 -25t-14 -23.5l-103 90q42 99 116.5 161.5t164.5 62.5q27 0 51.5 -4t48.5 -14.5t35 -15.5t36 -20t26 -16q11 -7 34 -22.5t34 -22t28 -15.5t31 -12.5t28 -3.5q27 0 48.5 10t42.5 34.5t33.5 43.5t35.5 58z" />
    <glyph glyph-name="notequal" unicode="&#x2260;" horiz-adv-x="1271" 
d="M1018 1092l-70 -170h236v-174h-293l-107 -267h400v-174h-459l-88 -217l-133 47l69 170h-241v174h301l106 267h-407v174h465l88 215z" />
    <glyph glyph-name="lessequal" unicode="&#x2264;" horiz-adv-x="1312" 
d="M1217 209l-834 459v190l834 461v-207l-676 -346v-4l676 -346v-207zM1229 -43h-854v178h854v-178z" />
    <glyph glyph-name="greaterequal" unicode="&#x2265;" horiz-adv-x="1310" 
d="M389 1319l834 -461v-190l-834 -459v207l676 346v6l-676 344v207zM1227 -43h-850v178h850v-178z" />
    <glyph glyph-name="lozenge" unicode="&#x25ca;" horiz-adv-x="1470" 
d="M1380 758l-366 -862h-244l-348 862l366 864h244zM1116 752l-168 452q-28 81 -37 158h-10q-9 -57 -37 -158l-178 -440l172 -465q18 -62 33 -147h12q15 95 33 141z" />
    </font>
</defs>
</svg>
