<?xml version="1.0" encoding="utf-8"?>
<!-- Generator: Adobe Illustrator 24.1.2, SVG Export Plug-In . SVG Version: 6.00 Build 0)  -->
<svg version="1.1" id="Capa_1" xmlns="http://www.w3.org/2000/svg" xmlns:xlink="http://www.w3.org/1999/xlink" x="0px" y="0px"
	 viewBox="0 0 155.9 53" style="enable-background:new 0 0 155.9 53;" xml:space="preserve">
<style type="text/css">
	.st0{fill:#656565;}
</style>
<g transform="translate(-2173.994 -232.945)">
	<path class="st0" d="M2231.3,258.5l-0.4,1.8c-0.3,1.4-0.1,2.7,1.8,2.7c1.3-0.1,2.4-1.2,2.5-2.5c0.4-2.1-1.1-2.9-2.5-3.9
		c-1.5-0.8-2.7-2-3.7-3.3c-0.9-1.5-1.1-3.3-0.6-5c1-4.7,4.4-7.1,8.9-7.1c5.1,0,7,3.4,5.7,8.1h-5.4c0.2-1.5,0.7-3.5-1.2-3.6
		c-1.1-0.1-2.1,0.6-2.4,1.7c-0.5,1.5,0.1,2.3,1.1,3.1c1.9,1.4,3.6,2.3,4.7,3.6s1.5,3,0.9,6c-1,4.8-4.3,7.5-9.2,7.5
		c-5.4,0-7-3-6.3-6.3l0.6-2.7L2231.3,258.5z"/>
	<path class="st0" d="M2254.9,250L2254.9,250l4.8-8.2h5.9l-9.2,14.5l-2.3,10.5h-5.9l2.3-10.5l-2.8-14.6h6L2254.9,250z"/>
	<path class="st0" d="M2270,258.5l-0.4,1.8c-0.3,1.4-0.1,2.7,1.8,2.7c1.3-0.1,2.4-1.2,2.5-2.5c0.4-2.1-1.1-2.9-2.5-3.9
		c-1.5-0.8-2.7-2-3.7-3.3c-0.9-1.5-1.1-3.3-0.6-5c1-4.7,4.4-7.1,8.9-7.1c5.1,0,7,3.4,5.7,8.1h-5.4c0.2-1.5,0.7-3.5-1.2-3.6
		c-1.1-0.1-2.1,0.6-2.4,1.7c-0.5,1.5,0.1,2.3,1.1,3.1c1.9,1.4,3.6,2.3,4.7,3.6s1.5,3,0.9,6c-1,4.8-4.3,7.5-9.2,7.5
		c-5.4,0-7-3-6.3-6.3l0.6-2.7L2270,258.5z"/>
	<path class="st0" d="M2282.3,267l5.4-25.1h8.3l-0.1,14.8h0.1l6.3-14.8h8.2l-5.4,25.1h-5.6l4.8-19.7h-0.1l-8.4,19.7h-4.4l0.2-19.7
		h-0.1l-3.7,19.7L2282.3,267z"/>
	<path class="st0" d="M2327.4,259.1c-1.2,5.7-3.8,8.6-9.8,8.6s-7.4-3-6.2-8.6l2.2-10.2c1-4.8,4.5-7.5,9.6-7.5s7.4,2.7,6.3,7.5
		L2327.4,259.1z M2323.6,249.3c0.3-1.5,0.6-3.4-1.3-3.4c-1.9,0-2.5,1.8-2.9,3.4l-2.2,10.3c-0.3,1.4-0.5,3.6,1.4,3.6s2.5-2.1,2.8-3.6
		L2323.6,249.3z"/>
	<path class="st0" d="M2200.9,238.6l4.1-4.1c0.3-0.4,0.3-1-0.1-1.3c-0.3-0.3-0.9-0.3-1.2,0l-4.1,4.1c-1.2-0.6-2.7-0.4-3.6,0.6
		l-21,21c-1.2,1.2-1.2,3.1-0.1,4.4s3.1,1.2,4.4,0.1c0,0,0,0,0.1-0.1l21-21C2201.3,241.3,2201.5,239.8,2200.9,238.6z"/>
	<path class="st0" d="M2196,257.7c1.2-1.2,1.2-3.2,0-4.4s-3.2-1.2-4.4,0l-8.4,8.4c-1,1-1.2,2.4-0.6,3.6l-0.7,0.7
		c-0.4,0.3-0.4,0.9-0.1,1.3c0.3,0.4,0.9,0.4,1.3,0.1l0.1-0.1l0.7-0.7c0.4,0.2,0.9,0.4,1.4,0.4c0.8,0,1.6-0.3,2.2-0.9L2196,257.7z"/>
	<path class="st0" d="M2213,259.3c0-0.2-0.1-0.4-0.2-0.5c-0.3-0.3-0.8-0.3-1.1,0l0,0l-1.1,1.1c-1.1-0.7-2.6-0.5-3.5,0.5l-20.6,20.6
		c-1.2,1.1-1.2,3,0,4.1c1.1,1.2,3,1.2,4.1,0l0,0l20.6-20.6c0.9-0.9,1.1-2.4,0.5-3.5l1.1-1.1C2212.9,259.7,2213,259.5,2213,259.3z"/>
	<path class="st0" d="M2198.6,257.4l-7.7,7.7c-1.2,1.2-1.2,3.2,0,4.4s3.2,1.2,4.4,0l7.7-7.7c1-1,1.2-2.4,0.6-3.6l6.1-6.1
		c0.3-0.4,0.3-1-0.1-1.3c-0.3-0.3-0.9-0.3-1.2,0l-6.1,6.1C2201.1,256.2,2199.6,256.4,2198.6,257.4z"/>
	<path class="st0" d="M2226.8,274.3c0,0.1,0.1,0.2,0.2,0.2c0.1,0.1,0.2,0.2,0.4,0.2c0.2,0.1,0.4,0.1,0.6,0.2
		c0.4,0.1,0.8,0.2,1.1,0.5c0.2,0.2,0.4,0.5,0.4,0.8c0,0.2,0,0.4-0.1,0.5c-0.1,0.2-0.2,0.3-0.3,0.4s-0.3,0.2-0.5,0.3
		c-0.2,0.1-0.4,0.1-0.6,0.1c-0.3,0-0.7-0.1-1-0.2s-0.6-0.3-0.9-0.6l0.3-0.4c0.2,0.2,0.5,0.4,0.7,0.5c0.3,0.1,0.6,0.2,0.8,0.2
		c0.3,0,0.5-0.1,0.7-0.2s0.3-0.3,0.3-0.6c0-0.1,0-0.2-0.1-0.3c0-0.1-0.1-0.2-0.2-0.2c-0.1-0.1-0.2-0.1-0.4-0.2s-0.4-0.1-0.6-0.2
		c-0.2,0-0.5-0.1-0.7-0.2s-0.3-0.2-0.5-0.3c-0.1-0.1-0.2-0.2-0.3-0.4c-0.1-0.2-0.1-0.3-0.1-0.5s0-0.3,0.1-0.5s0.2-0.3,0.3-0.4
		s0.3-0.2,0.5-0.3c0.2-0.1,0.4-0.1,0.6-0.1c0.3,0,0.6,0,0.9,0.1c0.3,0.1,0.5,0.2,0.7,0.4l-0.3,0.4c-0.2-0.2-0.4-0.3-0.6-0.4
		c-0.2-0.1-0.4-0.1-0.7-0.1c-0.1,0-0.3,0-0.4,0.1c-0.1,0-0.2,0.1-0.3,0.2s-0.2,0.1-0.2,0.2s-0.1,0.2-0.1,0.3
		C2226.7,274.1,2226.7,274.2,2226.8,274.3z"/>
	<path class="st0" d="M2233.3,277.5c-0.1,0.3-0.3,0.5-0.5,0.7c-0.2,0.1-0.4,0.2-0.6,0.2c-0.1,0-0.3,0-0.4,0c-0.1,0-0.2-0.1-0.3-0.1
		l0.2-0.4c0.1,0,0.2,0.1,0.2,0.1c0.1,0,0.2,0,0.3,0s0.3,0,0.4-0.1c0.1-0.1,0.2-0.3,0.3-0.5l-1.5-3.4h0.6l1.2,2.8l1.1-2.8h0.5
		L2233.3,277.5z"/>
	<path class="st0" d="M2239,276.9c-0.1,0.1-0.1,0.2-0.3,0.3c-0.1,0.1-0.2,0.2-0.4,0.2s-0.3,0.1-0.5,0.1c-0.3,0-0.5,0-0.7-0.1
		s-0.5-0.2-0.7-0.4l0.3-0.4c0.2,0.1,0.4,0.2,0.6,0.3c0.2,0.1,0.4,0.1,0.6,0.1c0.2,0,0.4,0,0.5-0.1s0.2-0.2,0.2-0.4l0,0
		c0-0.1,0-0.2-0.1-0.2c-0.1-0.1-0.1-0.1-0.2-0.2c-0.1,0-0.2-0.1-0.3-0.1s-0.2-0.1-0.3-0.1s-0.3-0.1-0.4-0.1c-0.1,0-0.2-0.1-0.4-0.2
		c-0.1-0.1-0.2-0.2-0.3-0.3c-0.1-0.1-0.1-0.3-0.1-0.4l0,0c0-0.1,0-0.3,0.1-0.4s0.1-0.2,0.2-0.3c0.1-0.1,0.2-0.2,0.4-0.2
		s0.3-0.1,0.5-0.1s0.4,0,0.6,0.1c0.2,0.1,0.4,0.2,0.6,0.3l-0.2,0.4c-0.2-0.1-0.3-0.2-0.5-0.2c-0.2-0.1-0.3-0.1-0.5-0.1
		s-0.3,0-0.5,0.1c-0.1,0.1-0.2,0.2-0.2,0.4l0,0c0,0.1,0,0.1,0.1,0.2s0.1,0.1,0.2,0.2c0.1,0,0.2,0.1,0.3,0.1s0.2,0.1,0.3,0.1
		s0.3,0.1,0.4,0.1c0.1,0,0.2,0.1,0.4,0.2c0.1,0.1,0.2,0.2,0.3,0.3c0.1,0.1,0.1,0.3,0.1,0.4l0,0
		C2239.1,276.6,2239.1,276.8,2239,276.9z"/>
	<path class="st0" d="M2242,276.5c0,0.2,0,0.3,0.2,0.4c0.1,0.1,0.3,0.1,0.4,0.1c0.1,0,0.2,0,0.2,0c0.1,0,0.2-0.1,0.2-0.1v0.4
		c-0.1,0-0.2,0.1-0.3,0.1s-0.2,0-0.3,0s-0.3,0-0.4-0.1c-0.1,0-0.2-0.1-0.3-0.2s-0.2-0.2-0.2-0.3c-0.1-0.1-0.1-0.3-0.1-0.4v-2.1h-0.5
		V274h0.5v-1h0.5v1h1.1v0.4h-1.1L2242,276.5z"/>
	<path class="st0" d="M2245.6,276.4c0.1,0.1,0.2,0.3,0.3,0.4s0.2,0.2,0.4,0.2c0.1,0.1,0.3,0.1,0.4,0.1c0.2,0,0.4,0,0.6-0.1
		c0.2-0.1,0.3-0.2,0.5-0.3l0.3,0.3c-0.2,0.2-0.4,0.3-0.6,0.5c-0.3,0.1-0.5,0.2-0.8,0.2c-0.2,0-0.4,0-0.7-0.1
		c-0.2-0.1-0.4-0.2-0.5-0.4c-0.2-0.2-0.3-0.4-0.4-0.6c-0.1-0.2-0.1-0.5-0.1-0.7s0-0.5,0.1-0.7s0.2-0.4,0.3-0.6s0.3-0.3,0.5-0.4
		c0.4-0.2,0.9-0.2,1.3,0c0.2,0.1,0.4,0.2,0.5,0.4c0.1,0.2,0.2,0.4,0.3,0.6s0.1,0.5,0.1,0.7v0.1v0.1h-2.7
		C2245.5,276.1,2245.5,276.3,2245.6,276.4z M2247.6,275.5c0-0.2,0-0.3-0.1-0.4c0-0.1-0.1-0.3-0.2-0.4c-0.2-0.2-0.5-0.4-0.8-0.3
		c-0.1,0-0.3,0-0.4,0.1c-0.1,0.1-0.2,0.1-0.3,0.2s-0.2,0.2-0.2,0.4c-0.1,0.1-0.1,0.3-0.1,0.5h2.1V275.5z"/>
	<path class="st0" d="M2253.3,274.4c0.1-0.1,0.2-0.2,0.3-0.2c0.1-0.1,0.2-0.1,0.3-0.1s0.3-0.1,0.4-0.1c0.3,0,0.7,0.1,0.9,0.4
		s0.4,0.6,0.3,1v2.1h-0.5v-2c0-0.3-0.1-0.5-0.2-0.8c-0.2-0.2-0.4-0.3-0.6-0.3c-0.1,0-0.2,0-0.4,0.1c-0.1,0-0.2,0.1-0.3,0.2
		s-0.2,0.2-0.2,0.3c-0.1,0.1-0.1,0.3-0.1,0.4v2h-0.5v-2c0-0.3-0.1-0.5-0.2-0.7c-0.2-0.2-0.4-0.3-0.6-0.3c-0.1,0-0.3,0-0.4,0.1
		c-0.1,0.1-0.2,0.1-0.3,0.2s-0.2,0.2-0.2,0.3c0,0.1-0.1,0.3-0.1,0.4v1.9h-0.5V274h0.5v0.6c0.1-0.1,0.1-0.2,0.2-0.2
		c0.1-0.1,0.1-0.1,0.2-0.2c0.1-0.1,0.2-0.1,0.3-0.1s0.3-0.1,0.4-0.1c0.2,0,0.5,0.1,0.7,0.2s0.3,0.3,0.4,0.5
		C2253.1,274.5,2253.2,274.5,2253.3,274.4z"/>
	<path class="st0" d="M2258.6,274.5c-0.2,0-0.3,0.1-0.5,0.2l-0.2-0.4c0.2-0.1,0.4-0.2,0.6-0.2c0.2-0.1,0.4-0.1,0.7-0.1
		c0.4,0,0.8,0.1,1.1,0.3c0.3,0.3,0.4,0.6,0.4,1v2.1h-0.5v-0.5c-0.1,0.2-0.3,0.3-0.5,0.4s-0.5,0.2-0.8,0.2c-0.2,0-0.3,0-0.5-0.1
		c-0.1,0-0.3-0.1-0.4-0.2c-0.1-0.1-0.2-0.2-0.3-0.3c-0.1-0.1-0.1-0.3-0.1-0.5s0-0.3,0.1-0.5c0.1-0.1,0.2-0.3,0.3-0.3
		c0.1-0.1,0.3-0.2,0.5-0.2c0.2-0.1,0.4-0.1,0.6-0.1c0.2,0,0.4,0,0.6,0c0.2,0,0.3,0.1,0.5,0.1v-0.1c0-0.3-0.1-0.5-0.3-0.7
		s-0.5-0.3-0.7-0.2C2259,274.4,2258.8,274.5,2258.6,274.5z M2258.5,275.9c-0.2,0.1-0.3,0.3-0.3,0.5c0,0.1,0,0.2,0.1,0.3
		c0,0.1,0.1,0.2,0.2,0.2c0.1,0.1,0.2,0.1,0.3,0.1s0.2,0,0.3,0c0.2,0,0.3,0,0.4-0.1c0.1,0,0.3-0.1,0.4-0.2c0.1-0.1,0.2-0.2,0.2-0.3
		c0.1-0.1,0.1-0.2,0.1-0.4v-0.3c-0.1,0-0.3-0.1-0.4-0.1c-0.2,0-0.4,0-0.6,0C2258.9,275.7,2258.7,275.8,2258.5,275.9z"/>
	<path class="st0" d="M2263.7,276.5c0,0.2,0,0.3,0.2,0.4c0.1,0.1,0.3,0.1,0.4,0.1c0.1,0,0.2,0,0.2,0c0.1,0,0.2-0.1,0.2-0.1v0.4
		c-0.1,0-0.2,0.1-0.3,0.1s-0.2,0-0.3,0s-0.3,0-0.4-0.1c-0.1,0-0.2-0.1-0.3-0.2s-0.2-0.2-0.2-0.3c-0.1-0.1-0.1-0.3-0.1-0.4v-2.1h-0.5
		V274h0.5v-1h0.5v1h1.1v0.4h-1.1L2263.7,276.5z"/>
	<path class="st0" d="M2267,273.3v-0.6h0.6v0.6H2267z M2267.1,277.4V274h0.5v3.4H2267.1z"/>
	<path class="st0" d="M2272.4,277.3c-0.2,0.1-0.5,0.2-0.8,0.2c-0.2,0-0.5,0-0.7-0.1c-0.4-0.2-0.7-0.5-0.9-0.9
		c-0.1-0.2-0.1-0.5-0.1-0.7s0-0.5,0.1-0.7s0.2-0.4,0.4-0.6s0.3-0.3,0.6-0.4c0.2-0.1,0.5-0.1,0.7-0.1c0.1,0,0.3,0,0.4,0
		c0.1,0,0.2,0.1,0.4,0.1c0.1,0.1,0.2,0.1,0.3,0.2s0.2,0.2,0.3,0.2l-0.3,0.4c-0.1-0.1-0.3-0.3-0.4-0.4c-0.2-0.1-0.4-0.2-0.6-0.2
		c-0.2,0-0.3,0-0.5,0.1c-0.1,0.1-0.3,0.2-0.4,0.3c-0.1,0.1-0.2,0.3-0.3,0.4c-0.1,0.2-0.1,0.3-0.1,0.5s0,0.4,0.1,0.5
		c0.1,0.2,0.1,0.3,0.3,0.4c0.1,0.1,0.2,0.2,0.4,0.3c0.2,0.1,0.3,0.1,0.5,0.1s0.4,0,0.6-0.1c0.2-0.1,0.3-0.2,0.5-0.4l0.3,0.3
		C2272.8,277,2272.6,277.2,2272.4,277.3z"/>
	<path class="st0" d="M2284,276.2L2284,276.2l-1.7-2.5v3.7h-0.5v-4.6h0.5l1.7,2.5l1.7-2.5h0.5v4.6h-0.5v-3.7L2284,276.2z"/>
	<path class="st0" d="M2292,276.4c-0.1,0.2-0.2,0.4-0.4,0.6s-0.4,0.3-0.6,0.4c-0.2,0.1-0.5,0.1-0.7,0.1s-0.5,0-0.7-0.1
		s-0.4-0.2-0.6-0.4c-0.2-0.2-0.3-0.4-0.4-0.6c-0.1-0.2-0.1-0.5-0.1-0.7s0-0.5,0.1-0.7c0.2-0.4,0.5-0.8,0.9-1
		c0.2-0.1,0.5-0.1,0.7-0.1s0.5,0,0.7,0.1s0.4,0.2,0.6,0.4c0.2,0.2,0.3,0.4,0.4,0.6C2292.1,275.5,2292.1,276,2292,276.4L2292,276.4z
		 M2291.5,275.2c-0.1-0.2-0.2-0.3-0.3-0.4s-0.2-0.2-0.4-0.3c-0.2-0.1-0.3-0.1-0.5-0.1s-0.3,0-0.5,0.1c-0.1,0.1-0.3,0.2-0.4,0.3
		c-0.1,0.1-0.2,0.3-0.3,0.4c-0.1,0.2-0.1,0.3-0.1,0.5s0,0.4,0.1,0.5c0.1,0.3,0.4,0.6,0.7,0.7c0.2,0.1,0.3,0.1,0.5,0.1s0.3,0,0.5-0.1
		c0.1-0.1,0.3-0.2,0.4-0.3c0.1-0.1,0.2-0.3,0.3-0.4c0.1-0.2,0.1-0.3,0.1-0.5C2291.6,275.6,2291.5,275.4,2291.5,275.2L2291.5,275.2z"
		/>
	<path class="st0" d="M2294.8,277.4h-0.5V274h0.5v0.6c0.1-0.2,0.3-0.3,0.4-0.5c0.2-0.1,0.5-0.2,0.7-0.2s0.4,0,0.5,0.1
		c0.2,0.1,0.3,0.2,0.4,0.3c0.1,0.1,0.2,0.3,0.3,0.4c0.1,0.2,0.1,0.4,0.1,0.6v2.1h-0.5v-2c0-0.3-0.1-0.5-0.2-0.8
		c-0.2-0.2-0.4-0.3-0.7-0.3c-0.1,0-0.3,0-0.4,0.1c-0.1,0-0.2,0.1-0.3,0.2s-0.2,0.2-0.2,0.3c-0.1,0.1-0.1,0.3-0.1,0.4V277.4z"/>
	<path class="st0" d="M2300.1,276.4c0.1,0.1,0.2,0.3,0.3,0.4s0.2,0.2,0.4,0.2c0.1,0.1,0.3,0.1,0.4,0.1c0.2,0,0.4,0,0.6-0.1
		c0.2-0.1,0.3-0.2,0.5-0.3l0.3,0.3c-0.2,0.2-0.4,0.3-0.6,0.5c-0.3,0.1-0.5,0.2-0.8,0.2c-0.2,0-0.4,0-0.7-0.1
		c-0.2-0.1-0.4-0.2-0.5-0.4c-0.2-0.2-0.3-0.4-0.4-0.6c-0.1-0.2-0.1-0.5-0.1-0.7s0-0.5,0.1-0.7s0.2-0.4,0.3-0.6s0.3-0.3,0.5-0.4
		c0.4-0.2,0.9-0.2,1.3,0c0.2,0.1,0.4,0.2,0.5,0.4c0.1,0.2,0.2,0.4,0.3,0.6s0.1,0.5,0.1,0.7v0.1v0.1h-2.7
		C2300,276.1,2300.1,276.3,2300.1,276.4z M2302.2,275.5c0-0.2,0-0.3-0.1-0.4c0-0.1-0.1-0.3-0.2-0.4c-0.1-0.1-0.2-0.2-0.3-0.3
		c-0.1-0.1-0.3-0.1-0.4-0.1c-0.1,0-0.3,0-0.4,0.1c-0.1,0.1-0.2,0.1-0.3,0.2s-0.2,0.2-0.2,0.4c-0.1,0.1-0.1,0.3-0.1,0.5L2302.2,275.5
		z"/>
	<path class="st0" d="M2306.4,277.5c-0.1,0.3-0.3,0.5-0.5,0.7c-0.2,0.1-0.4,0.2-0.6,0.2c-0.1,0-0.3,0-0.4,0c-0.1,0-0.2-0.1-0.3-0.1
		l0.2-0.4c0.1,0,0.2,0.1,0.2,0.1c0.1,0,0.2,0,0.3,0s0.3,0,0.4-0.1c0.1-0.1,0.2-0.3,0.3-0.5l-1.5-3.4h0.6l1.2,2.8l1.1-2.8h0.5
		L2306.4,277.5z"/>
</g>
</svg>
