<svg xmlns="http://www.w3.org/2000/svg" width="502.595" height="667.925" viewBox="0 0 502.595 667.925"><g transform="translate(-4381.399 -8262.63)"><path d="M4986.784,8273.688a11.067,11.067,0,0,0-18.89-7.822l-15.8,15.8a42.583,42.583,0,0,0-51.445,6.789l-300.765,300.766a42.64,42.64,0,1,0,60.3,60.3l300.768-300.768a42.561,42.561,0,0,0,6.789-51.443l15.792-15.791A11,11,0,0,0,4986.784,8273.688Z" transform="translate(-102.79 0.001)" fill="#d72f3a"/><path d="M4780.784,8809.688a11.067,11.067,0,0,0-18.89-7.822l-15.8,15.8a42.581,42.581,0,0,0-51.444,6.788l-300.766,300.767a42.639,42.639,0,0,0,60.3,60.3l300.768-300.768a42.561,42.561,0,0,0,6.79-51.443l15.791-15.792A11,11,0,0,0,4780.784,8809.688Z" transform="translate(0 -267.452)" fill="#0098ff"/></g></svg>