<svg xmlns="http://www.w3.org/2000/svg" width="668.635" height="456.704" viewBox="0 0 668.635 456.704"><g transform="translate(-2223.399 -8234.741)"><path d="M2800.221,8508.228a11.605,11.605,0,0,0-19.809-8.205l-16.565,16.566a44.655,44.655,0,0,0-53.948,7.119l-315.4,315.4a44.715,44.715,0,0,0,63.235,63.238l315.406-315.405a44.634,44.634,0,0,0,7.12-53.947l16.56-16.561A11.531,11.531,0,0,0,2800.221,8508.228Z" transform="translate(-158 -261.888)" fill="#d72f3a"/><path d="M2832.221,8110.227a11.605,11.605,0,0,0-19.809-8.2l-16.565,16.565a44.655,44.655,0,0,0-53.948,7.12l-315.4,315.4a44.715,44.715,0,0,0,63.235,63.238l315.406-315.4a44.635,44.635,0,0,0,7.12-53.948l16.56-16.561A11.529,11.529,0,0,0,2832.221,8110.227Z" transform="translate(59.813 174.001)" fill="#00f36d"/></g></svg>