<svg xmlns="http://www.w3.org/2000/svg" width="20.521" height="22.405" viewBox="0 0 20.521 22.405"><path d="M1169.077,3786.338h-.056v-1.358a7.9,7.9,0,1,0-15.806,0v1.358h-.332a2.258,2.258,0,0,0-2.163,2.33v3.466a2.19,2.19,0,0,0,2.134,2.245h2.081a.526.526,0,0,0,.5-.551l0-.031V3787c0-.333-.194-.666-.5-.666h-.611v-1.358a6.794,6.794,0,0,1,13.588,0v1.358h-.61c-.305,0-.5.333-.5.666v6.794a.527.527,0,0,0,.468.58l.031,0h.638l-.056.083a4.378,4.378,0,0,1-3.521,1.747,2.743,2.743,0,1,0-2.662,3.272,2.857,2.857,0,0,0,2-.859,2.444,2.444,0,0,0,.666-1.332,5.489,5.489,0,0,0,4.409-2.19l.526-.777a1.888,1.888,0,0,0,1.942-1.913v-3.466C1171.24,3787.753,1170.352,3786.338,1169.077,3786.338Zm-14.753,6.933h-1.441a1.081,1.081,0,0,1-1.055-1.108v-3.5a1.15,1.15,0,0,1,1.054-1.22h1.441Zm8.569,4.575a1.636,1.636,0,0,1-1.192.527,1.691,1.691,0,0,1-1.664-1.636,1.636,1.636,0,1,1,3.272,0h0A1.469,1.469,0,0,1,1162.893,3797.846Zm7.237-5.435c0,.749-.721.86-1.053.86h-1.165v-5.823h1.165c.61,0,1.053.859,1.053,1.5Z" transform="translate(-1150.719 -3777.077)" fill="#fff"/></svg>