<svg xmlns="http://www.w3.org/2000/svg" width="290.075" height="76.634" viewBox="0 0 290.075 76.634">
  <g id="logo_xm" transform="translate(-177.517 -3580.135)">
    <g id="Grupo_97" data-name="Grupo 97">
      <path id="Trazado_99" data-name="Trazado 99" d="M339.8,3597.186l-7.84-16.856H305.307l16.464,33.907Z"/>
      <path id="Trazado_100" data-name="Trazado 100" d="M403.109,3580.331H355.482l-65.267,76.438h25.872l17.051-20.383,9.6,20.383H387.43l6.075-34.1,5.488,18.816,16.268-19.6Zm-36.651,70.362-15.876-33.711,27.44-31.752Z"/>
      <path id="Trazado_101" data-name="Trazado 101" d="M443.681,3580.331l-43.511,66.051h21.756l16.66-25.872-6.468,36.26h22.148l13.328-76.439Z"/>
    </g>
    <g id="Grupo_98" data-name="Grupo 98">
      <path id="Trazado_102" data-name="Trazado 102" d="M211.816,3583.075a49.254,49.254,0,0,0-.392,10.779c.588,5.1,3.724,7.644,7.84,9.212,1.176.392,3.136,1.176,4.7.784a3.792,3.792,0,0,0,1.764-.98,10.7,10.7,0,0,1,5.1-1.96,22.682,22.682,0,0,1,8.428.98,35.505,35.505,0,0,1,6.86,2.548,7.339,7.339,0,0,1,2.352,2.548c.98,1.568,1.372,4.312,3.528,4.9.588-2.156.2-4.7.2-7.056a34.284,34.284,0,0,1,.98-6.468,64.779,64.779,0,0,1,2.352-8.82c.2-.392.588-2.744,1.372-2.352.392.2.2.98.2,1.568a41.387,41.387,0,0,1-.392,5.1,52.844,52.844,0,0,0,.392,13.72,23.919,23.919,0,0,1,.784,6.664,7.466,7.466,0,0,1-.588,1.96c-.2.588,0,.98-.2,1.568a11.715,11.715,0,0,1-1.176,2.156,3.189,3.189,0,0,0-.588,1.176c-.2.392-.588.588-.588,1.176,0,.784,1.372,2.156,2.156,2.352,3.136.98,6.664,1.372,8.428,3.136a7.027,7.027,0,0,1,2.156,4.508,8.5,8.5,0,0,1-.98,4.508c-.392.98-.784,3.528-1.568,3.92-.588.392-1.372.2-2.156.588-.2.98-.588,1.568-.784,2.547-.588.784-1.372,1.176-1.96,1.96.2,1.568-.784,2.156-2.156,2.156-4.116,3.332-12.152,1.176-15.68-1.176-1.764,1.176-3.724,2.156-3.332,5.488,1.568.784,2.548,1.764,4.508,2.352,2.352.784,5.292.392,6.664,1.764l.392.392h11.76l33.319-38.611-18.424-37.827H212.012A12.052,12.052,0,0,1,211.816,3583.075Z" fill="red"/>
      <path id="Trazado_103" data-name="Trazado 103" d="M181.241,3656.181a28.09,28.09,0,0,1,8.036-5.1,28.641,28.641,0,0,0,6.468-3.332c.784-.588,1.372-1.372,2.352-1.568,1.764-.2,3.724.588,5.1.784,3.724.784,6.664-1.176,8.623-3.135a11.357,11.357,0,0,0,2.744-3.332c.784-1.764.392-3.92.392-6.076,0-4.312,1.568-7.448,1.764-11.564,0-2.156-.392-4.116-.2-6.272-2.156-1.176-4.7-2.156-6.467-4.116s-3.724-5.488-3.136-8.428a15.494,15.494,0,0,1-2.548-7.84c0-3.136.98-5.684,1.764-8.624.784-2.548,1.372-5.095,2.156-7.447H193.981l-16.464,76.438h3.528C181.045,3656.377,181.241,3656.377,181.241,3656.181Z" fill="red"/>
    </g>
  </g>
</svg>
