<svg xmlns="http://www.w3.org/2000/svg" width="215.348" height="27.664" viewBox="0 0 215.348 27.664"><g transform="translate(-5868.883 -1877.966)"><path d="M6064.8,1877.966a2.508,2.508,0,0,0,0,5.016,2.546,2.546,0,0,0,2.517-2.509A2.5,2.5,0,0,0,6064.8,1877.966Zm-176.158,1.181a95.607,95.607,0,0,0-15.058,3.009,1.346,1.346,0,0,0-.883,1.57c.363,1.432.547,2.15.916,3.586a1.041,1.041,0,0,0,1.386.713,103.538,103.538,0,0,1,15.417-3.41.951.951,0,0,0,.709-1.328c-.466-1.316-.7-1.972-1.177-3.281A1.285,1.285,0,0,0,5888.641,1879.147Zm104.68.153a10.362,10.362,0,0,0-4.873,1.564v20.909h4.873Zm54.949,0a10.488,10.488,0,0,0-4.876,1.564v19.966a18.232,18.232,0,0,0,7.071,1.269c5.682,0,9.167-3.42,9.167-9.348,0-4.234-1.969-7.589-6.779-7.589a7.2,7.2,0,0,0-4.583,1.856Zm-138.726.782a45.578,45.578,0,0,0-7,.652v21.039h7.94c4.327,0,8.136-2.539,8.136-6.35,0-2.9-1.258-4.691-4.2-5.538a4.218,4.218,0,0,0,2.971-4.169C5917.39,1882.133,5913.9,1880.082,5909.544,1880.082Zm0,4.1c2.033,0,2.971.943,2.971,2.279,0,1.4-.9,2.216-2.842,2.216h-2.2v-4.332A14.675,14.675,0,0,1,5909.544,1884.186Zm54.109.945c-5.1,0-9.04,3-9.04,8.7,0,5.276,3.262,8.273,8.233,8.273a14.072,14.072,0,0,0,5.067-1.043l-.871-3.908a8.938,8.938,0,0,1-3,.585c-3.066,0-4.294-1.6-4.294-4.2,0-2.573,1.324-4.265,4.585-4.265a8.488,8.488,0,0,1,1.97.293,7.259,7.259,0,0,0,1.613-3.876A18.2,18.2,0,0,0,5963.653,1885.131Zm13.624,0c-4.939,0-8.427,3.258-8.427,8.469,0,5.146,3.293,8.5,8.427,8.5,5.1,0,8.425-3.257,8.425-8.5C5985.7,1888.519,5982.409,1885.131,5977.277,1885.131Zm27.214,0c-4.938,0-8.426,3.258-8.426,8.469,0,5.146,3.294,8.5,8.426,8.5,5.1,0,8.426-3.257,8.426-8.5C6012.917,1888.519,6009.624,1885.131,6004.491,1885.131Zm-58.822.031a15.634,15.634,0,0,0-8.006,2.118l-.03,14.495h4.873v-12.214a8.152,8.152,0,0,1,2.066-.261c1.969,0,3.1.879,3.1,2.6v9.87h4.842V1890.18c0-3.16-3.132-5.018-6.845-5.018Zm77.226,0a14,14,0,0,0-7.523,2.118l-.03,14.495h4.874v-12.214a8.142,8.142,0,0,1,2.064-.261c1.937,0,3.036.879,3.036,2.6v9.87h4.811v-9.643a6.846,6.846,0,0,0-.389-2.343,6.635,6.635,0,0,1,2.486-.489c1.936,0,3.033.879,3.033,2.6v9.87h4.811v-11.6c0-3.127-2.742-5.017-6.262-5.017a11.518,11.518,0,0,0-5.877,1.792,7.534,7.534,0,0,0-5.035-1.792Zm41.936,0a6.226,6.226,0,0,0-2.453.458v16.155h4.876V1885.62a6.079,6.079,0,0,0-2.423-.458Zm-137.455.033a17.181,17.181,0,0,0-6.1,1.271l.387,1.171c.517,1.433,1.13,1.923,1.905,1.923.322,0,2.808-.425,3.744-.425,1.775,0,2.583.521,2.68,2.54-5.327.163-9.813,1.3-9.813,5.961,0,3.094,2.81,4.5,6.2,4.5,3.809,0,6.617-.718,8.36-2.053v-8.565c0-4.56-2.713-6.318-7.361-6.318Zm149.5,0a17.182,17.182,0,0,0-6.1,1.271l.388,1.171c.515,1.433,1.129,1.923,1.9,1.923.323,0,2.808-.425,3.744-.425,1.774,0,2.583.521,2.681,2.54-5.326.163-9.816,1.3-9.816,5.961,0,3.094,2.81,4.5,6.2,4.5,3.81,0,6.618-.718,8.36-2.053v-8.565c0-4.56-2.71-6.318-7.358-6.318Zm-183.94,1.922a83.2,83.2,0,0,0-23.276,6.295,1.456,1.456,0,0,0-.75,1.537c.29,1.535.437,2.3.733,3.841a.905.905,0,0,0,1.347.665,91.223,91.223,0,0,1,23.665-6.96.931.931,0,0,0,.585-1.294c-.411-1.271-.619-1.906-1.043-3.172A1.244,1.244,0,0,0,5892.933,1887.117Zm157.854,2.183c2.486,0,4.035,1.074,4.035,4.07,0,2.606-1.226,4.821-4.066,4.821a16.983,16.983,0,0,1-2.485-.2v-8.175A5.879,5.879,0,0,1,6050.786,1889.3Zm-73.509.065c2.259,0,3.55,1.565,3.55,4.236,0,2.8-1.291,4.265-3.55,4.265-2.229,0-3.551-1.464-3.551-4.265C5973.727,1890.93,5975.081,1889.365,5977.277,1889.365Zm27.214,0c2.26,0,3.551,1.565,3.551,4.236,0,2.8-1.291,4.265-3.551,4.265-2.228,0-3.552-1.464-3.552-4.265C6000.939,1890.93,6002.3,1889.365,6004.491,1889.365Zm-97.014,3.387h2.582c2.163,0,3.262.718,3.262,2.444,0,1.6-1.194,2.442-3.292,2.442h-2.552Zm21.576,2.053h.937v2.8a4.474,4.474,0,0,1-2.776.813c-1.582,0-2.355-.422-2.355-1.6C5924.858,1895.294,5926.858,1894.8,5929.054,1894.8Zm149.5,0h.937v2.8a4.476,4.476,0,0,1-2.776.813c-1.582,0-2.356-.422-2.356-1.6C6074.355,1895.294,6076.355,1894.8,6078.552,1894.8Zm-185.716.872a130.208,130.208,0,0,0-14.777,4.071,1.25,1.25,0,0,0-.8,1.474c.386,1.425.578,2.14.97,3.569a1.211,1.211,0,0,0,1.633.75,145.873,145.873,0,0,1,14.769-4.476.939.939,0,0,0,.539-1.262c-.395-1.284-.593-1.923-1-3.2A1.23,1.23,0,0,0,5892.836,1895.677Z" transform="translate(0 0)" fill="#fff"/></g></svg>