<svg xmlns="http://www.w3.org/2000/svg" width="284.836" height="72.191" viewBox="0 0 284.836 72.191"><g transform="translate(-197.244 -2288.589)"><path d="M312.467,2309.71c-.042-1.75-.64-3.457-2.946-3.457a3.861,3.861,0,0,0-3.074,1.322c-.982.982-1.708,3.117-2.69,7.9a38.557,38.557,0,0,0-.811,5.977,2.9,2.9,0,0,0,3.074,3.246c2.263,0,3.587-1.709,4.27-3.459h7.3c-2.221,6.661-6.7,9.693-12.126,9.693-6.4,0-9.692-4.314-9.692-8.881a37.474,37.474,0,0,1,.9-6.576c1.067-5.294,1.793-9.094,4.611-11.912a12.028,12.028,0,0,1,8.71-3.543c6.532,0,9.564,4.355,9.564,9.691Z" fill="#fff"/><path d="M337.107,2330.674l-.427-4.782h-9.009l-2.348,4.782h-7.558l16.567-30.4h5.507l4.483,30.4Zm-1.921-19.512-4.612,8.966h5.551Z" fill="#fff"/><path d="M367.981,2308.173c-1.282-1.58-2.947-1.964-4.953-1.964-2.9,0-4.569,1.794-4.569,3.33,0,1.623,1.366,1.965,2.6,2.306l2.3.6c5.337,1.366,7.087,3.843,7.087,8.2,0,7.343-6.1,10.291-12.6,10.291-5.08,0-8.112-1.153-10.758-4.185l5.123-4.483c1.494,1.707,3.629,2.39,6.276,2.39,2.775,0,4.824-1.536,4.824-3.286,0-1.623-.9-2.179-2.561-2.6l-2.306-.6c-6.148-1.579-7.087-5.124-7.087-7.472,0-6.66,5.166-10.673,12.467-10.673,3.8,0,7.173,1.323,9.094,3.8Z" fill="#fff"/><path d="M395.437,2330.674H388.35l2.477-12.254H383.27l-2.477,12.254h-7.087l6.105-30.4H386.9l-2.348,11.868h7.557l2.349-11.868h7.087Z" fill="#fff"/><path d="M423.536,2315.3a5.782,5.782,0,0,1,2.562,5.123c0,6.276-4.654,10.247-10.546,10.247H402.445l6.1-30.4h11.485c5.081,0,8.07,2.86,8.07,7.13A8.713,8.713,0,0,1,423.536,2315.3Zm-6.916,3.116h-4.612l-1.2,5.978h4.525a3.414,3.414,0,0,0,3.587-3.629A2.132,2.132,0,0,0,416.62,2318.42Zm2.091-11.869H414.4l-1.153,5.593h4.185a3.26,3.26,0,0,0,3.458-3.33A2.023,2.023,0,0,0,418.711,2306.551Z" fill="#fff"/><path d="M454.2,2315.474c-1.068,5.295-1.879,9.137-4.7,11.955a12.583,12.583,0,0,1-8.625,3.5c-6.276,0-9.564-4.314-9.564-8.881a37.573,37.573,0,0,1,.9-6.576c1.068-5.294,1.879-9.136,4.7-11.954a12.574,12.574,0,0,1,8.624-3.5c6.276,0,9.564,4.312,9.564,8.88A37.53,37.53,0,0,1,454.2,2315.474Zm-9.265-9.221a4.212,4.212,0,0,0-3.074,1.451c-.94,1.024-1.495,2.6-2.563,7.77a38.552,38.552,0,0,0-.81,5.977,2.921,2.921,0,0,0,2.988,3.246,4.215,4.215,0,0,0,3.074-1.452c.939-1.025,1.494-2.605,2.562-7.771a38.549,38.549,0,0,0,.811-5.977A2.921,2.921,0,0,0,444.932,2306.253Z" fill="#fff"/><path d="M480.8,2306.551h-6.96l-4.824,24.123h-7.088l4.825-24.123h-7.258l1.28-6.275h21.3Z" fill="#fff"/><path d="M299.283,2349.271l-.135-1.5h-2.835l-.739,1.5H293.2l5.213-9.566h1.733l1.411,9.566Zm-.6-6.14-1.451,2.821h1.746Z" fill="#fff"/><path d="M312.354,2345.926a3.815,3.815,0,0,1-3.883,3.425,2.8,2.8,0,0,1-3.05-2.794,5.077,5.077,0,0,1,.081-.833l1.209-6.019h2.231l-1.236,6.141a3.327,3.327,0,0,0-.054.537.9.9,0,0,0,.954.993c.914,0,1.357-.644,1.558-1.638l1.209-6.033H313.6Z" fill="#fff"/><path d="M323.733,2341.68h-2.19l-1.518,7.591H317.8l1.518-7.591h-2.284l.4-1.975h6.7Z" fill="#fff"/><path d="M333.675,2344.488c-.336,1.666-.591,2.875-1.478,3.762a3.959,3.959,0,0,1-2.714,1.1,2.783,2.783,0,0,1-3.01-2.794,11.809,11.809,0,0,1,.282-2.069c.336-1.665.592-2.876,1.478-3.762a3.963,3.963,0,0,1,2.714-1.1,2.783,2.783,0,0,1,3.01,2.794A11.8,11.8,0,0,1,333.675,2344.488Zm-2.916-2.9a1.325,1.325,0,0,0-.967.457c-.3.323-.47.819-.806,2.445a12.056,12.056,0,0,0-.256,1.881.92.92,0,0,0,.941,1.021,1.326,1.326,0,0,0,.967-.457c.3-.321.471-.819.807-2.445a12.155,12.155,0,0,0,.255-1.881A.919.919,0,0,0,330.759,2341.586Z" fill="#fff"/><path d="M345.43,2349.271H343.2l.941-4.716-1.706,2.365H341.01l-.873-2.365-.955,4.716h-2.23l1.922-9.566h2.082l1.222,4.219,2.983-4.219h2.19Z" fill="#fff"/><path d="M355.1,2349.271l-.135-1.5h-2.835l-.738,1.5h-2.378l5.213-9.566h1.733l1.41,9.566Zm-.605-6.14-1.451,2.821h1.747Z" fill="#fff"/><path d="M367.758,2341.68h-2.19l-1.518,7.591h-2.23l1.518-7.591h-2.284l.4-1.975h6.7Z" fill="#fff"/><path d="M372.486,2349.271h-2.23l1.922-9.566h2.23Z" fill="#fff"/><path d="M382.643,2342.674c-.013-.551-.2-1.088-.927-1.088a1.218,1.218,0,0,0-.967.416,5.445,5.445,0,0,0-.847,2.486,12.171,12.171,0,0,0-.255,1.881.912.912,0,0,0,.967,1.021,1.483,1.483,0,0,0,1.344-1.088h2.3a3.918,3.918,0,0,1-3.816,3.049,2.8,2.8,0,0,1-3.05-2.794,11.811,11.811,0,0,1,.282-2.069c.336-1.665.565-2.862,1.451-3.748a3.783,3.783,0,0,1,2.741-1.115,2.808,2.808,0,0,1,3.01,3.049Z" fill="#fff"/><path d="M400.713,2341.68h-2.19l-1.518,7.591h-2.23l1.517-7.591h-2.283l.4-1.975h6.7Z" fill="#fff"/><path d="M409.2,2345.362l1.276,3.909h-2.444l-1.008-3.627h-.847l-.739,3.627h-2.23l1.921-9.566h3.4a2.509,2.509,0,0,1,2.741,2.767A3.189,3.189,0,0,1,409.2,2345.362Zm-1.048-3.668h-1.182l-.43,2.095h1.169a1.2,1.2,0,0,0,1.316-1.2A.8.8,0,0,0,408.155,2341.694Z" fill="#fff"/><path d="M419.441,2349.271l-.135-1.5h-2.835l-.738,1.5h-2.379l5.213-9.566H420.3l1.41,9.566Zm-.605-6.14-1.451,2.821h1.746Z" fill="#fff"/><path d="M433.023,2344.488c-.47,2.391-.672,3-1.478,3.8a3.7,3.7,0,0,1-2.728.98H425.3l1.922-9.566h3.211a2.588,2.588,0,0,1,2.9,2.714A11.863,11.863,0,0,1,433.023,2344.488Zm-2.969-2.821h-.995l-1.128,5.643h.981a1.483,1.483,0,0,0,1.115-.431c.282-.281.429-.645.765-2.391a12.5,12.5,0,0,0,.283-1.855A.9.9,0,0,0,430.054,2341.667Z" fill="#fff"/><path d="M438.516,2349.271h-2.23l1.922-9.566h2.23Z" fill="#fff"/><path d="M450.151,2349.271H448.3l-2.029-4.971-1.007,4.971H443.03l1.922-9.566h1.854l2.042,4.985.995-4.985h2.23Z" fill="#fff"/><path d="M460.4,2342.715c-.026-.672-.349-1.129-.967-1.129a1.443,1.443,0,0,0-1.008.43c-.443.444-.578,1.061-.873,2.472a11.351,11.351,0,0,0-.255,1.9.878.878,0,0,0,.967,1.007,1.722,1.722,0,0,0,1.6-1.532l.04-.2h-1.357l.35-1.853h3.573l-.242,1.289a5.357,5.357,0,0,1-1.4,3.158,3.807,3.807,0,0,1-2.714,1.1,2.772,2.772,0,0,1-3.063-2.794,11.312,11.312,0,0,1,.269-2.069c.456-2.3.7-2.97,1.464-3.736a3.84,3.84,0,0,1,2.781-1.127,2.888,2.888,0,0,1,3.064,3.09Z" fill="#fff"/><path d="M212.4,2327.675l14.991-26.025h30.2l-7.575-13.06H219.865l-22.621,39.181,7.5,13.019-.043.086h40.009l7.6-13.2Z" fill="#00f36d"/><path d="M265.155,2308.538h-30.2l-7.524,13.061H257.58l-3.5,6.076-7.6,13.2-3.942,6.844h-30.2l7.575,13.062h30.143l22.621-39.182Z" fill="#e4333c"/></g></svg>